<svg width="40" height="40" viewBox="0 0 40 40" fill="none" xmlns="http://www.w3.org/2000/svg">
<path d="M35.1562 0H4.21875C1.88965 0 0 1.88965 0 4.21875V35.1562C0 37.4854 1.88965 39.375 4.21875 39.375H35.1562C37.4854 39.375 39.375 37.4854 39.375 35.1562V4.21875C39.375 1.88965 37.4854 0 35.1562 0ZM24.3721 33.7236C23.6338 33.8555 23.3613 33.3984 23.3613 33.0205C23.3613 32.5459 23.3789 30.1201 23.3789 28.1602C23.3789 26.7891 22.9219 25.9189 22.3857 25.4619C25.6377 25.1016 29.0654 24.6533 29.0654 19.0371C29.0654 17.4375 28.4941 16.6377 27.5625 15.6094C27.7119 15.2314 28.2129 13.6758 27.4131 11.6543C26.1914 11.2764 23.3965 13.2275 23.3965 13.2275C22.2363 12.9023 20.9795 12.7354 19.7402 12.7354C18.501 12.7354 17.2441 12.9023 16.084 13.2275C16.084 13.2275 13.2891 11.2764 12.0674 11.6543C11.2676 13.667 11.7598 15.2227 11.918 15.6094C10.9863 16.6377 10.5469 17.4375 10.5469 19.0371C10.5469 24.627 13.8252 25.1016 17.0771 25.4619C16.6553 25.8398 16.2773 26.4902 16.1455 27.4219C15.3105 27.7998 13.1748 28.4502 11.9004 26.2002C11.1006 24.8115 9.65918 24.6973 9.65918 24.6973C8.23535 24.6797 9.5625 25.5938 9.5625 25.5938C10.5117 26.0332 11.1797 27.7207 11.1797 27.7207C12.0322 30.3311 16.1104 29.4521 16.1104 29.4521C16.1104 30.6738 16.1279 32.6602 16.1279 33.0205C16.1279 33.3984 15.8643 33.8555 15.1172 33.7236C9.31641 31.7812 5.25586 26.2617 5.25586 19.8105C5.25586 11.7422 11.4258 5.61621 19.4941 5.61621C27.5625 5.61621 34.1016 11.7422 34.1016 19.8105C34.1104 26.2617 30.1728 31.79 24.3721 33.7236ZM15.75 28.3535C15.583 28.3887 15.4248 28.3184 15.4072 28.2041C15.3896 28.0723 15.5039 27.958 15.6709 27.9229C15.8379 27.9053 15.9961 27.9756 16.0137 28.0898C16.04 28.2041 15.9258 28.3184 15.75 28.3535ZM14.915 28.2744C14.915 28.3887 14.7832 28.4854 14.6074 28.4854C14.4141 28.5029 14.2822 28.4063 14.2822 28.2744C14.2822 28.1602 14.4141 28.0635 14.5898 28.0635C14.7568 28.0459 14.915 28.1426 14.915 28.2744ZM13.7109 28.1777C13.6758 28.292 13.5 28.3447 13.3506 28.292C13.1836 28.2568 13.0693 28.125 13.1045 28.0107C13.1396 27.8965 13.3154 27.8438 13.4648 27.8789C13.6406 27.9316 13.7549 28.0635 13.7109 28.1777ZM12.6299 27.7031C12.5508 27.7998 12.3838 27.7822 12.252 27.6504C12.1201 27.5361 12.085 27.3691 12.1729 27.29C12.252 27.1934 12.4189 27.2109 12.5508 27.3428C12.665 27.457 12.709 27.6328 12.6299 27.7031ZM11.8301 26.9033C11.751 26.9561 11.6016 26.9033 11.5049 26.7715C11.4082 26.6396 11.4082 26.4902 11.5049 26.4287C11.6016 26.3496 11.751 26.4111 11.8301 26.543C11.9268 26.6748 11.9268 26.833 11.8301 26.9033ZM11.2588 26.0508C11.1797 26.1299 11.0479 26.0859 10.9512 25.998C10.8545 25.8838 10.8369 25.752 10.916 25.6904C10.9951 25.6113 11.127 25.6553 11.2236 25.7432C11.3203 25.8574 11.3379 25.9893 11.2588 26.0508ZM10.6699 25.4004C10.6348 25.4795 10.5205 25.4971 10.4238 25.4355C10.3096 25.3828 10.2568 25.2861 10.292 25.207C10.3271 25.1543 10.4238 25.1279 10.5381 25.1719C10.6523 25.2334 10.7051 25.3301 10.6699 25.4004Z" fill="#DC143C"/>
</svg>
