<svg width="40" height="40" viewBox="0 0 40 40" fill="none" xmlns="http://www.w3.org/2000/svg">
<path d="M36.5625 0H2.80371C1.25684 0 0 1.27441 0 2.83887V36.5361C0 38.1006 1.25684 39.375 2.80371 39.375H36.5625C38.1094 39.375 39.375 38.1006 39.375 36.5361V2.83887C39.375 1.27441 38.1094 0 36.5625 0ZM11.9004 33.75H6.06445V14.959H11.9092V33.75H11.9004ZM8.98242 12.3926C7.11035 12.3926 5.59863 10.8721 5.59863 9.00879C5.59863 7.14551 7.11035 5.625 8.98242 5.625C10.8457 5.625 12.3662 7.14551 12.3662 9.00879C12.3662 10.8809 10.8545 12.3926 8.98242 12.3926ZM33.7764 33.75H27.9404V24.6094C27.9404 22.4297 27.8965 19.626 24.9082 19.626C21.8672 19.626 21.4014 21.999 21.4014 24.4512V33.75H15.5654V14.959H21.1641V17.5254H21.2432C22.0254 16.0488 23.9326 14.4932 26.7715 14.4932C32.6777 14.4932 33.7764 18.3867 33.7764 23.4492V33.75Z" fill="#DC143C"/>
</svg>
