<svg width="45" height="45" viewBox="0 0 45 45" fill="none" xmlns="http://www.w3.org/2000/svg">
<path d="M42.9545 15V10.7143H40.9091V8.57143H38.8636V6.42857H36.8182V4.28571H34.7727V2.14286H30.6818V0H14.3182V2.14286H10.2273V4.28571H8.18182V6.42857H6.13636V8.57143H4.09091V10.7143H2.04545V15H0V38.5714H2.04545V42.8571H4.09091V45H10.2273V42.8571H12.2727V23.5714H10.2273V21.4286H4.09091V25.7143H2.04545V17.1429H4.09091V12.8571H6.13636V10.7143H8.18182V8.57143H10.2273V6.42857H12.2727V4.28571H16.3636V2.14286H28.6364V4.28571H32.7273V6.42857H34.7727V8.57143H36.8182V10.7143H38.8636V12.8571H40.9091V17.1429H42.9545V25.7143H40.9091V21.4286H34.7727V23.5714H32.7273V42.8571H34.7727V45H40.9091V42.8571H42.9545V38.5714H45V15H42.9545ZM4.09091 27.8571H6.13636V25.7143H8.18182V40.7143H6.13636V38.5714H4.09091V27.8571ZM40.9091 38.5714H38.8636V40.7143H36.8182V25.7143H38.8636V27.8571H40.9091V38.5714Z" fill="#15B2CE"/>
</svg>
