<svg width="44" height="45" viewBox="0 0 44 45" fill="none" xmlns="http://www.w3.org/2000/svg">
<path d="M45 45H0V40.5H45V45ZM25.7143 0C21.6964 0 17.9357 1.395 15.7179 3.735L6.42857 13.5L12.8571 18L19.4786 14.9175C20.8929 14.22 22.95 14.49 23.9464 15.525C24.0107 15.5925 24.1071 15.66 24.1071 15.75C25.0714 17.0775 24.7179 18.675 23.2071 19.7325L7.77857 30.5325C6.01071 31.7925 6.01071 33.8175 7.81071 35.055C8.64643 35.64 9.80357 36 10.9929 36H38.5714V9C38.5714 6.61305 37.2168 4.32387 34.8057 2.63604C32.3945 0.948212 29.1242 0 25.7143 0Z" fill="#FCDB65"/>
</svg>
