<svg width="180" height="180" viewBox="0 0 180 180" fill="none" xmlns="http://www.w3.org/2000/svg">
<rect width="180" height="180" rx="36" fill="#0044CC"/>
<path d="M89.996 27C55.2073 27 27 55.2073 27 89.996C27 124.785 55.2073 153 89.996 153C124.785 153 153 124.793 153 89.996C153 55.1994 124.793 27 89.996 27ZM123.11 81.2869C115.321 84.0418 108.446 83.1208 93.0922 90.2263C100.42 94.5848 106.16 95.9503 111.193 96.641C118.751 97.554 126.547 99.1656 126.547 106.033C126.547 108.557 125.404 111.304 123.562 113.368C121.045 116.346 117.378 118.41 113.948 118.41C107.533 118.41 103.865 112.217 101.801 107.184C99.7372 103.056 97.4428 98.0224 90.8058 92.9811C88.7417 100.769 88.7417 105.58 88.7417 109.47C88.7417 115.433 89.8928 119.783 89.2021 124.594C88.2891 131.922 83.0176 136.971 75.9122 136.971C71.5616 136.971 68.3543 133.534 68.3543 129.175C68.3543 118.18 78.8894 117.036 87.8287 92.7509C69.4975 102.143 66.9729 110.614 55.2946 116.346C52.5398 117.719 50.7059 118.18 49.5627 118.18C44.2991 118.18 41.7745 114.512 41.7745 110.161C41.7745 105.12 45.6646 101.452 50.7059 99.6181C60.328 95.9503 68.8068 98.0224 86.9078 90.2263C78.8894 85.4152 72.2444 84.272 66.7506 83.1208C59.6373 82.2079 53.4528 80.6042 53.4528 73.9592C53.4528 66.8618 60.328 61.5903 66.7506 61.5903C72.6969 61.5903 76.3647 68.005 78.4368 73.0462C80.2628 77.3968 82.7795 82.2079 89.2021 87.7096C92.1793 76.0234 90.1151 69.8389 90.1151 63.4242C90.1151 52.6509 94.2355 43.0289 103.865 43.0289C109.137 43.0289 111.654 46.006 111.654 50.817C111.654 61.8205 98.3637 70.0612 92.1793 87.7096C107.295 79.6912 112.106 72.816 119.22 68.005C123.11 64.5674 126.547 61.5903 130.898 61.5903C135.709 61.5903 138.226 65.0278 138.226 69.1482C138.226 76.2536 132.279 79.9214 123.11 81.2869Z" fill="#F8F4EA"/>
</svg>
