<svg width="45" height="45" viewBox="0 0 45 45" fill="none" xmlns="http://www.w3.org/2000/svg">
<mask id="mask0_209_11" style="mask-type:luminance" maskUnits="userSpaceOnUse" x="0" y="0" width="45" height="45">
<path d="M0 0H45V45H0V0Z" fill="white"/>
</mask>
<g mask="url(#mask0_209_11)">
<path d="M38.4375 15.0919V10.35L25.3125 3.78748V1.91248L22.5 0.974976L19.6875 1.91248V3.78748L6.5625 10.35V15.0919L0.9375 17.9043V28.2168L6.5625 31.0293V37.5918L14.0625 43.1625L13.6106 40.1456L22.5 44.1543L31.3894 40.1456L30.9375 43.1625L38.4375 37.5918V31.0293L44.0625 28.2168V17.9043L38.4375 15.0919Z" fill="white"/>
<path d="M0.9375 28.1794L6.5625 30.9919V15.0544L0.9375 17.8669V28.1794ZM44.0625 28.1794L38.4375 30.9919V15.0544L44.0625 17.8669V28.1794ZM19.6875 9.375L6.5625 15.9375V37.5544L14.0625 43.125L11.25 24.375L15 19.6875L22.5 24.375L30 19.6875L33.75 24.375L30.9375 43.125L38.4375 37.5544V15.9375L25.3125 9.375H19.6875ZM25.3125 15.9375H19.6875V12.1875H25.3125V15.9375Z" fill="#BBD8FF"/>
<path d="M25.3125 3.75L38.4375 10.3125V37.5544L30.9375 43.125L33.75 24.375L30 19.6875L22.5 24.375L15 19.6875L11.25 24.375L14.0625 43.125L6.5625 37.5544V10.3125L19.6875 3.75" stroke="#092F63" stroke-width="1.875" stroke-linecap="round" stroke-linejoin="round"/>
<path d="M19.6875 38.4375H25.3125M17.8125 29.0625V30.9375M31.3894 40.1081L22.5 44.1188L13.6106 40.11M27.1875 29.0625V30.9375M25.3125 12.1875H19.6875V15.9375H25.3125V12.1875ZM25.3125 1.875V6.5625H19.6875V1.875L22.5 0.9375L25.3125 1.875ZM0.9375 28.1794L6.5625 30.9919V15.0544L0.9375 17.8669V28.1794ZM44.0625 28.1794L38.4375 30.9919V15.0544L44.0625 17.8669V28.1794Z" stroke="#092F63" stroke-width="1.875" stroke-linecap="round" stroke-linejoin="round"/>
</g>
</svg>
