<svg width="135" height="163" viewBox="0 0 135 163" fill="none" xmlns="http://www.w3.org/2000/svg">
<path d="M7 125.462L38.5 33.9621V86.4621L67.9748 3.46207M46 125.462L67.9748 53.9621M115.5 125.462L91.8853 53.9621M67.9748 53.9621L79.5 16.4621L91.8853 53.9621M67.9748 53.9621H91.8853" stroke="#E5E4E2" stroke-width="10"/>
<path d="M19.3352 155.462V140.862H21.7352L26.1952 153.362C26.1685 153.029 26.1352 152.622 26.0952 152.142C26.0685 151.649 26.0418 151.135 26.0152 150.602C26.0018 150.055 25.9952 149.542 25.9952 149.062V140.862H27.7352V155.462H25.3352L20.8952 142.962C20.9218 143.282 20.9485 143.689 20.9752 144.182C21.0018 144.662 21.0218 145.175 21.0352 145.722C21.0618 146.255 21.0752 146.769 21.0752 147.262V155.462H19.3352ZM43.8195 155.462V140.862H45.6195V153.822H52.2195V155.462H43.8195ZM67.3439 155.462V140.862H71.1239C72.0706 140.862 72.8839 141.042 73.5639 141.402C74.2572 141.762 74.7906 142.269 75.1639 142.922C75.5506 143.575 75.7439 144.349 75.7439 145.242V151.062C75.7439 151.955 75.5506 152.735 75.1639 153.402C74.7906 154.055 74.2572 154.562 73.5639 154.922C72.8839 155.282 72.0706 155.462 71.1239 155.462H67.3439ZM69.1439 153.862H71.1239C72.0039 153.862 72.6906 153.615 73.1839 153.122C73.6906 152.629 73.9439 151.942 73.9439 151.062V145.242C73.9439 144.375 73.6906 143.695 73.1839 143.202C72.6906 142.709 72.0039 142.462 71.1239 142.462H69.1439V153.862ZM95.4883 155.662C94.6083 155.662 93.8483 155.495 93.2083 155.162C92.5816 154.829 92.0949 154.349 91.7483 153.722C91.4149 153.082 91.2483 152.329 91.2483 151.462V144.862C91.2483 143.982 91.4149 143.229 91.7483 142.602C92.0949 141.975 92.5816 141.495 93.2083 141.162C93.8483 140.829 94.6083 140.662 95.4883 140.662C96.3683 140.662 97.1216 140.829 97.7483 141.162C98.3883 141.495 98.8749 141.975 99.2083 142.602C99.5549 143.229 99.7283 143.975 99.7283 144.842V151.462C99.7283 152.329 99.5549 153.082 99.2083 153.722C98.8749 154.349 98.3883 154.829 97.7483 155.162C97.1216 155.495 96.3683 155.662 95.4883 155.662ZM95.4883 154.042C96.2749 154.042 96.8749 153.822 97.2883 153.382C97.7149 152.929 97.9283 152.289 97.9283 151.462V144.862C97.9283 144.035 97.7149 143.402 97.2883 142.962C96.8749 142.509 96.2749 142.282 95.4883 142.282C94.7149 142.282 94.1149 142.509 93.6883 142.962C93.2616 143.402 93.0483 144.035 93.0483 144.862V151.462C93.0483 152.289 93.2616 152.929 93.6883 153.382C94.1149 153.822 94.7149 154.042 95.4883 154.042ZM115.173 155.462V153.662L121.753 142.502H115.273V140.862H123.573V142.662L116.993 153.822H123.773V155.462H115.173Z" fill="black"/>
<path d="M16 125.462L47.5 33.9621V86.4621L76.9748 3.46207M55 125.462L76.9748 53.9621M124.5 125.462L100.885 53.9621M76.9748 53.9621L88.5 16.4621L100.885 53.9621M76.9748 53.9621H100.885" stroke="#DC143C" stroke-width="10"/>
<path d="M21 125.462L52.5 33.9621V86.4621L81.9748 3.46207M60 125.462L81.9748 53.9621M129.5 125.462L105.885 53.9621M81.9748 53.9621L93.5 16.4621L105.885 53.9621M81.9748 53.9621H105.885" stroke="#333333" stroke-width="10"/>
</svg>
