<?xml version="1.0" encoding="UTF-8"?><svg id="Layer_1" xmlns="http://www.w3.org/2000/svg" viewBox="0 0 417 417"><path d="M225.9,107.99c4.34-.05,12.66,1.12,16.09,3.69,5.56,4.18,10.07,4.65,16.4,7.14,13.05,5.02,25.11,12.31,35.61,21.54,47.56,42.02,55.38,115.8,14.5,165.33-2.18,2.64-4.57,5.06-6.84,7.62,1.66.48,3.23,1.23,4.63,2.23,10.55,7.57,5.72,25.27-.7,33.95-3.75,5.2-10.15,10.91-16.99,11.45-15.71,1.23-31.65-5.18-47.33-6.28-1.81-.13-3.66-.3-5.45-.46-7.71-.72-15.29.52-22.99.53-6.7.13-13.08-1.77-19.61-1.77-9.7,0-19.77,1.93-29.31,3.52-2.87.48-5.69,1.26-8.55,1.73-6.85,1.53-18.43,3.68-25.18,2.39-14.11-2.69-24.15-22.27-21.59-35.72.86-4.52,3.87-8.56,8.28-10.01,2.04-.67,4.06-1.08,5.84-2.29-13.83-14.59-22.98-29.86-28.05-49.5-4.88-18.56-5.33-38-1.33-56.76,1.03-5.02,2.55-9.5,3.99-14.38.21-.69-.06-4.19-.08-5.13-.16-6.65,1.97-14.59,8.35-17.84,1.33-.67,2.62-.97,4.07-1.33.5-4.42.57-11.99.62-16.53l-.93-.07c-4.62-.32-3.8-4.5-6.2-6.15-4-2.42-3.94,3.75-7.41,3.69-1.87.02-10.05.45-11.09-.92-3.69-5.05-2.42-17.22.33-22.29,1.03-1.87,11.91-1.38,12.96-.27,2.4,2.53,3.28,10.04,8.58-.21,2.28-.32,7.21-.18,9.6-.13,10.61.23,16.02,1.4,23.6,9.4,17.94-15.92,47.39-23.07,70.81-23.75,2.82-.08,5.73-.08,8.56-.11,2.13-2.41,3.81-2.14,6.79-2.31h0Z" fill="#232221"/><path d="M184.55,153.38c4.36-.29,9.21-.22,13.58.13,20.56,1.65,40.94,7.09,60.14,14.49,4.49,1.73,9.45,3.5,13.52,6.04,3.65,2.45,4.76,7.82,5.76,11.87,3.74,15.15,6.48,33.52-2.92,47.2-6.29,9.15-16.51,12.52-26.94,14.35-2.27.3-4.55.53-6.84.7-25.61,1.77-56.66-4.63-76.61-21.68-22.33-19.09-9.24-49.76,7.02-67.87,4.55-5.07,6.88-4.84,13.28-5.23h0Z" fill="#fff"/><path d="M197.69,165.05c7.38-.48,11.9,4.93,10.81,12.05-1.24,8.09-7.67,15.79-13.97,20.62-4.39,3.37-9.31,5.74-14.91,4.97-2.44-.37-4.74-1.38-6.65-2.94-6.61-5.47-4.93-15.17.22-20.92,5.94-6.65,15.48-13.02,24.51-13.78h0Z" fill="#232221"/><path d="M191.91,176.89c3.15-.14,5.41.68,7.43,3.28.76.99,2.23,3.72.75,4.61-1.33-.09-3.62-3-5.18-3.93-6.38-1.47-7.18,2.91-9.93,2.66l-.25-.34c-.08-3.46,4.42-5.31,7.16-6.28h0Z" fill="#fff"/><path d="M241.98,174.45c1.99-.17,4.03-.22,5.93.55,6.96,3.02,12.81,10.47,15.85,17.21,4.35,9.65,5.16,19.34-5.83,24.22-3.34,1.2-7.02.99-10.2-.59-7.23-3.54-11.67-12.61-13.25-20.12-1.67-7.96-1.78-18.3,7.51-21.28h0Z" fill="#232221"/><path d="M244.2,188.61c4.93-.3,9.67,2.8,9.92,8.14.04.77-.09,1.29-.65,1.83h-.46c-1.5-.85-1.79-2.5-2.86-4.23-5.06-5.65-9.53.02-11.77-.25l-.18-.28c.27-2.57,3.82-4.41,6.01-5.21h0Z" fill="#fff"/><path d="M211.04,196.24c3.93-.02,14.37,1.42,16.11,5.79,1.96,4.94-14.26,6.88-11.35,12.03,3.36,5.95,9.13,3.44,13.48.5.37-.25.83-.3,1.27-.14.44,1.43-.04,2.4-1.17,3.31-2.75,2.22-5.95,2.54-9.3,2.23-3.34-.97-4.1-1.69-6.66-4.01-.44.11-.87.21-1.32.3-6.09,1.28-12.23.58-13.73-6.6-.13-.63-.08-.95.28-1.46,1.16.14,4.87,7.39,10.45,5.97,10.21-2.6-2.76-8.7-2.97-13.81-.13-3.11,2.16-3.82,4.92-4.13h0Z" fill="#232221"/><path d="M214.27,198.86c2.2-.15,7.91-.35,8.1,2.59-2.19-.02-7.5-.03-8.1-2.59Z" fill="#fff"/><path d="M200.92,261.94c22.21-.85,46.73,8.41,64.79,21.1,4.41,3.21,4.61,9.59,5.29,14.53.18,1.33.42,5.73,0,6.95-.76,2.14-4.53,5.09-6.14,6.85-8.62,9.46-11.44,22.6-19.35,32.52-5.2,6.51-14.04,8.05-21.89,8.81-.02,0-.05,0-.07,0-18.36,1.58-38.52-2.32-52.84-14.51-10.05-8.59-16.27-20.83-17.27-34.01-.48-6.13.69-26.14,4.74-29.95,8.44-7.93,31.77-11.69,42.73-12.3h0Z" fill="#fff"/><path d="M261.12,127.82c2.75.84,6.9,3.02,9.43,4.39,14.71,8.09,27.5,19.28,37.47,32.8,17.58,23.91,25.02,53.79,20.69,83.15-3.26,21.38-11.66,40.55-26.11,56.8-2.52,2.83-6.7,7.09-9.69,9.29-5.94-7.33-9.56-9.27-18.99-10.83-.13-3.58-1.05-9.28-1.67-12.79-.69-3.63-1.4-7.08-1.65-10.77,16.6,2.43,40.3,4.24,49.66-12.78,6.65-12.36,6.77-27.75,3.76-41.24-2.99-13.37-14.08-27.27-29.32-23.5-5.93,1.47-7.8,5.48-10.57,10.44-.22-1.03-.32-2.03-.4-3.08-.55-7.89-1.56-15.67-2.99-23.45,3.53-1.59,7.25-3.26,9.68-6.4,6.54-8.47,3.98-22.04-4.36-28.4-4.26-3.25-8.34-3.6-13.47-2.89-1.7-4.54-3.46-8.05-6-12.18-1.45-2.36-4.36-6.19-5.46-8.56h0Z" fill="#838382"/><path d="M103.98,203.27c.33.3,1.33,1.51,1.78,1.97,1.11,1.13,2.13,2.04,3.3,3.1-.14,3.9-1.5,17.53-.27,20.48.42,1.01,1.65,1.63,2.63,1.97,3.86,1.36,9.25,1.18,12.93-.62,5.92,9.69,13.54,18.22,22.5,25.19,3.65,2.87,7.86,5.72,11.64,8.56-1.88,5.85-4.46,11.4-5.84,17.46-1.12,4.95-2.01,9.95-2.22,15.05-.07,1.6,0,5.55-.47,6.81-.52.19-1.07.32-1.61.45-6.43,2.05-9.22,4.29-14.45,8.17-1.74-1.28-3.76-3.44-5.32-5-6.3-6.29-11.37-13.52-15.51-21.4-10.47-20.02-14.76-42.7-12.33-65.16.58-5.56,1.58-11.7,3.23-17.03h0Z" fill="#838382"/><path d="M226.67,111.26c6.11.02,12.69.97,17.76,4.61-.22,4.07-1.42,9.15-2.25,13.21-1.09,5.61-2.27,11.19-3.53,16.77,2.36-5.45,3.58-10.21,5.07-15.94.63-2.4,1.62-6.37,2.59-8.53,2.38.72,4.22,1.47,3.75,4.25-1.29,7.61-3.69,14.92-4.74,22.6,2.61-6.08,5.43-16.33,7.43-22.92,10.85,6.66,18.44,20.93,18.41,33.53,0,.76-.08,1.76-.67,2.29-1.04.07-2.47-.87-3.37-1.39-7.75-4.45-15.51-7.25-23.97-9.96-16.63-4.91-35.35-8.48-52.73-7.63-1.9.09-3.88.34-5.75.37-1.01.01-1.12-2.07-.64-2.71,4.31-8.67,12.74-16.06,21.61-19.83,1.37-.58,5.47-2.22,6.72-1.73.42.63.39.92.33,1.79-.45,6.47-2.3,14.35-2.02,20.78.61-3.04,1.47-6.03,2.12-9.06.67-3.11,1.58-11.97,3.04-14.11.55-.8,1.5-1.43,2.47-1.56.62-.09,1.24.06,1.7.51,1.3,1.3-1.51,15.31-1.86,17.92-.3,2.25-.42,4.53-.56,6.8.89-2.82,1.65-5.68,2.29-8.57,1.42-6.38,2.5-13.21,4.79-19.36.46-1.22.73-1.8,1.99-2.12h0Z" fill="#fae733"/><path d="M197.03,119.69c.53-.09.52-.07,1.06,0l.14.27c-.61,1.07-9.14,8.81-10.72,10.14-3.06-.93-5.75-1.96-8.97-2.16-12.48-.76-23.85,12.73-20.36,24.88,1.11,3.87,3.65,6.92,6.33,9.8-10.32,14.26-14.54,23.52-15.99,41.03-4.54-3.69-12.01-9.7-12.23-15.94.55-4.84,1.37-11.29-2.75-15.02-2.48-2.24-5.26-2.09-8.36-1.96l.12-8.65c1.95-3.26,9.19-10.84,12.11-13.67,3.02,1.44,5.14,3.02,7.55,5.3.95,1.21,6.97,6.13,7.56,2.42.63-3.94-4.48-12.47-6.22-15.53,13.59-10.39,33.62-19.27,50.73-20.93h0Z" fill="#838382"/><path d="M93.32,127.54c2.05.02,3.46.08,5.45.56,1.27,2.88,2.86,5.9,6.81,4.85,2.52-.67,3.8-2.8,5.04-4.93,10.85-.11,20.26-.55,28.46,7.73,5.08,5.14,9.49,11.74,10.99,18.87-1.26-.98-2.49-2.09-3.7-3.14-3.58-3.25-8.82-7.28-14.13-6.08-2.68.61-4.01,2.97-5.28,5.18-4.8-.21-11.85-.53-16.5-1.02-2.97-6.52-7.84-10.19-12.32-2.25-2.11.14-3.61.12-5.71.07,2.08-6.15,2.55-13.54.9-19.84h0s0,0,0,0Z" fill="#6bc6c8"/><path d="M190.67,144.53c21.42-1.44,59.78,7.04,78.08,18.4,3.69,2.29,8.1,5.71,9.04,10.23.14.7.19,1.21-.21,1.83-1.22.2-5.02-2.37-6.16-3.14-2.35-1.58-4.59-2.84-7.13-4.09-23.28-10.44-49.13-15.64-74.65-17.01-5.67-.3-12.02,1.81-17.66,2.07-.87-.8.2-2.29.79-2.96,4.24-4.79,12.01-4.99,17.91-5.33h0Z" fill="#a4815c"/><path d="M122.77,201.7s.02.02.03.03c.67.77.02,23.07-.06,26.28-3.61,1.4-6.93,1.33-10.59.2-.61-.38-1.17-.81-1.2-1.58-.09-2.43.09-4.91.22-7.33.27-5.13.55-10.16.54-15.3,4.73-.05,6.8-.39,11.06-2.29h0Z" fill="#6bc6c8"/><path d="M294.57,335.36c9.2-1,9.53,7.74,6.31,13.88-1.8,3.44-4.43,5.34-8.14,6.45-11.24,1.45-11.31-16.54,1.83-20.33h0Z" fill="#fff"/><path d="M128.28,335.59c9.98-.99,17.86,16.02,6.46,20.13-9.91,1.61-18.25-17.34-6.46-20.13h0Z" fill="#fff"/><path d="M284.04,215.13c.78.64,2.66,7.05,6.06,9.2,2.44,1.54,5.09,1.55,6.47,2.44.27.53.19.23-.01.99-1.39,1.06-2.34-.99-4.31-.32-1.01,1.21-2.8,8.19-3.8,10.65-.3.8-.75,1.67-1.11,2.46-1.95-3.14-3.51-2.7-7-3.33-1.24-.22-2.53-.35-3.78-.52,1.58-3.92,3.75-7.32,5.14-11.34,1.15-3.3,1.29-6.7,2.25-9.96l.08-.28h0Z" fill="#838382"/><path d="M115.04,152.1c2.2,0,5.8.09,7.91.39-.24,5.88-.29,12.02-.39,17.92-3.3-1.47-4.38-1.58-8.04-1.77.05-5.42.33-11.1.52-16.54h0Z" fill="#6bc6c8"/><path d="M90.34,127.28c3.14,1.32,2.38,17.29-.84,20.28-4.13-1.67-2.31-14.48-1.03-17.96.45-1.22.83-1.61,1.88-2.32h0Z" fill="#6bc6c8"/><path d="M127.94,178.44c.58,1.7-.22,2.87-1.01,4.32,2.08,4.4,2.25,6.65-1.29,10.25.12,1.67.67,5.01-1.3,5.94l-.19-.21c-.24-1.08.29-1.84.37-2.9.29-4.18-6.91-4.22-9.7-4.31,1.44-.3,2.73-.49,4.18-.69,2.32.14,3.8.55,6.04,1.18.91-.97,2.04-2.62,2.23-3.93.81-5.84-8.37-6.88-12.19-7.62,4.59-.59,6.56.17,10.87,1.51.8-1.13,1.37-2.32,2-3.55h0Z" fill="#fff"/><path d="M127.06,313.77c7.26-.3,17.1,9.71,17.88,16.57-.18-.07-.37-.13-.55-.19-3.33-4.15-5.35-9.03-10.05-12.04-2.12-1.36-6.33-2.42-7.28-4.34h0Z" fill="#fff"/><path d="M302.84,323.4c4.12.14,3.9,4.52.45,6.26h-.23c-4.55-.02-2.98-4.38-.21-6.26Z" fill="#fff"/><path d="M294.53,313.97c.19.07.61.25.81.34l.07.32c-.57.62-4.23,2.61-5.3,3.36-4.1,2.85-6.57,6.83-9.36,10.87l-.28.14-.18-.19c.04-.39.07-.53.23-.9,2.71-6.28,7.73-11.27,14.02-13.95h0Z" fill="#fff"/><path d="M294.64,322.97c3.9-.07,3.37,4.15.28,5.89-4.08-.16-3.39-4.14-.28-5.89Z" fill="#fff"/><path d="M120.85,323.6c3.03-.19,5.41,3.55,2.62,5.96-3.21-.05-5.61-3.53-2.62-5.96Z" fill="#fff"/><path d="M130.04,323c3.62.13,4.51,3.35,1.9,5.78-4.24.06-4.3-3.05-1.9-5.78Z" fill="#fff"/><path d="M308.84,329.34c3.57,0,2.59,4.3-.56,5.43-4.17-.49-1.72-4.02.56-5.43Z" fill="#fff"/><path d="M115.27,329.31c2.87.05,4.61,2.69,2.96,5.31-3.2-.11-5.02-2.45-2.96-5.31Z" fill="#fff"/><path d="M165.9,251.52l.31.29c.12,1.9-1.61,4.17-3.05,5.27-.4-.18-.23-.04-.5-.47.23-1.65,2.03-3.97,3.24-5.09h0Z" fill="#fff"/></svg>