<svg width="45" height="45" viewBox="0 0 45 45" fill="none" xmlns="http://www.w3.org/2000/svg">
<path d="M33.0469 20.0391C33.0469 19.9219 33.0688 19.812 33.1128 19.7095C33.1567 19.6069 33.252 19.5557 33.3984 19.5557C33.4717 19.5557 33.5742 19.5776 33.7061 19.6216C33.8379 19.6655 33.9478 19.7095 34.0356 19.7534C34.6069 19.9731 35.1636 20.1416 35.7056 20.2588C36.2476 20.376 36.8335 20.4419 37.4634 20.4565C37.771 20.4565 38.1006 20.4346 38.4521 20.3906C38.8037 20.3467 39.126 20.2515 39.4189 20.105C39.7119 19.9585 39.9536 19.7607 40.144 19.5117C40.3345 19.2627 40.4297 18.9404 40.4297 18.5449C40.4297 18.1494 40.3125 17.8271 40.0781 17.5781C39.8437 17.3291 39.5288 17.124 39.1333 16.9629C38.7378 16.8018 38.313 16.6553 37.8589 16.5234C37.4048 16.3916 36.9214 16.2451 36.4087 16.084C35.896 15.9229 35.4419 15.7251 35.0464 15.4907C34.6509 15.2563 34.2847 14.9341 33.9478 14.5239C33.6987 14.187 33.5156 13.8501 33.3984 13.5132C33.2812 13.1763 33.2153 12.7881 33.2007 12.3486C33.2007 11.6895 33.3472 11.1182 33.6401 10.6348C33.9331 10.1514 34.314 9.74121 34.7827 9.4043C35.2515 9.06738 35.7788 8.82568 36.3647 8.6792C36.9507 8.53271 37.5366 8.45215 38.1226 8.4375C38.3569 8.4375 38.6646 8.45947 39.0454 8.50342C39.4263 8.54736 39.8071 8.61328 40.188 8.70117C40.5688 8.78906 40.9351 8.89893 41.2866 9.03076C41.6382 9.1626 41.8799 9.33105 42.0117 9.53613C42.1289 9.71191 42.1875 9.93896 42.1875 10.2173V10.481C42.1875 10.5688 42.1802 10.6567 42.1655 10.7446C42.1655 10.8618 42.1436 10.9717 42.0996 11.0742C42.0557 11.1768 41.9604 11.228 41.814 11.228C41.7114 11.228 41.6162 11.2061 41.5283 11.1621C41.4404 11.1182 41.3452 11.0742 41.2427 11.0303C40.8032 10.8252 40.3345 10.6787 39.8364 10.5908C39.3384 10.5029 38.8477 10.459 38.3643 10.459C38.0713 10.459 37.771 10.481 37.4634 10.5249C37.1558 10.5688 36.8628 10.6494 36.5845 10.7666C36.3062 10.8838 36.0937 11.0669 35.9473 11.3159C35.8008 11.5649 35.7129 11.8652 35.6836 12.2168C35.6836 12.7002 35.8594 13.0737 36.2109 13.3374C36.5625 13.6011 37.0093 13.8281 37.5513 14.0186C38.0933 14.209 38.6719 14.3848 39.2871 14.5459C39.9023 14.707 40.481 14.9414 41.0229 15.249C41.5649 15.5566 42.0117 15.9375 42.3633 16.3916C42.7148 16.8457 42.8979 17.4829 42.9126 18.3032C42.9126 19.0356 42.7588 19.6655 42.4512 20.1929C42.1436 20.7202 41.7407 21.1523 41.2427 21.4893C40.7446 21.8262 40.1733 22.0825 39.5288 22.2583C38.8843 22.4341 38.2471 22.5146 37.6172 22.5C37.3828 22.5 37.0386 22.478 36.5845 22.4341C36.1304 22.3901 35.6689 22.3096 35.2002 22.1924C34.7314 22.0752 34.292 21.9434 33.8818 21.7969C33.4717 21.6504 33.2227 21.4526 33.1348 21.2036C33.0908 21.1157 33.0615 21.0205 33.0469 20.918C33.0322 20.8154 33.0249 20.7056 33.0249 20.5884V20.3027C33.0249 20.2148 33.0322 20.127 33.0469 20.0391ZM14.0845 9.20654C14.0845 8.95752 14.2017 8.83301 14.436 8.83301H15.9082C16.2012 8.83301 16.3989 8.88428 16.5015 8.98682C16.604 9.08936 16.6992 9.27979 16.7871 9.55811L19.314 19.4678L21.6431 9.55811C21.7163 9.23584 21.8481 9.03076 22.0386 8.94287C22.229 8.85498 22.4487 8.80371 22.6978 8.78906C22.8589 8.78906 23.0273 8.79639 23.2031 8.81104C23.3789 8.82568 23.5547 8.83301 23.7305 8.83301C24.0088 8.83301 24.2065 8.88428 24.3237 8.98682C24.4409 9.08936 24.5361 9.27979 24.6094 9.55811L26.9604 19.5776L29.5532 9.55811C29.6265 9.30908 29.7217 9.12598 29.8389 9.00879C29.9561 8.8916 30.1538 8.83301 30.4321 8.83301H31.8164C32.0654 8.83301 32.1899 8.95752 32.1899 9.20654C32.1899 9.32373 32.1753 9.42627 32.146 9.51416C32.1167 9.60205 32.0874 9.70459 32.0581 9.82178L28.4546 21.3794C28.3521 21.7163 28.2056 21.9287 28.0151 22.0166C27.8247 22.1045 27.605 22.1484 27.356 22.1484C27.1948 22.1484 27.0264 22.1411 26.8506 22.1265C26.6748 22.1118 26.4844 22.1045 26.2793 22.1045C25.9863 22.1045 25.7886 22.0532 25.686 21.9507C25.5835 21.8481 25.4883 21.6504 25.4004 21.3574L23.0933 11.7114L20.7861 21.3574C20.7129 21.6943 20.5811 21.9141 20.3906 22.0166C20.2002 22.1191 19.9731 22.1704 19.7095 22.1704C19.5483 22.1704 19.3799 22.1631 19.2041 22.1484C19.0283 22.1338 18.8306 22.1191 18.6108 22.1045C18.3179 22.1045 18.1201 22.0459 18.0176 21.9287C17.915 21.8115 17.8198 21.6211 17.7319 21.3574L14.2163 9.7998C14.187 9.71191 14.1577 9.6167 14.1284 9.51416C14.0991 9.41162 14.0845 9.30908 14.0845 9.20654ZM10.2832 14.6997V13.6011C10.2832 13.0298 10.2246 12.5464 10.1074 12.1509C9.99023 11.7554 9.80713 11.4404 9.55811 11.2061C9.30908 10.9717 8.98682 10.7959 8.59131 10.6787C8.1958 10.5615 7.7124 10.5103 7.14111 10.5249C6.52588 10.5249 5.97656 10.5835 5.49316 10.7007C5.00977 10.8179 4.48242 10.9937 3.91113 11.228C3.80859 11.2573 3.68408 11.3013 3.5376 11.3599C3.39111 11.4185 3.25928 11.4551 3.14209 11.4697C2.99561 11.4697 2.90771 11.3965 2.87842 11.25C2.84912 11.1035 2.82715 10.9424 2.8125 10.7666V10.481C2.8125 10.3931 2.81982 10.3198 2.83447 10.2612V9.99756C2.83447 9.89502 2.86377 9.80713 2.92236 9.73389C3.0542 9.54346 3.3252 9.36768 3.73535 9.20654C4.14551 9.04541 4.59229 8.91357 5.07568 8.81104C5.55908 8.7085 6.03516 8.62061 6.50391 8.54736C6.97266 8.47412 7.32422 8.44482 7.55859 8.45947C9.24316 8.45947 10.5249 8.84033 11.4038 9.60205C12.2827 10.3638 12.7222 11.6162 12.7222 13.3594V18.2153H12.7661C12.7661 18.4204 12.7734 18.6401 12.7881 18.8745C12.8027 19.1089 12.8467 19.3286 12.9199 19.5337C12.9492 19.6069 12.9932 19.7095 13.0518 19.8413C13.1104 19.9731 13.1763 20.1196 13.2495 20.2808C13.3228 20.4419 13.3813 20.5811 13.4253 20.6982C13.4692 20.8154 13.4985 20.9033 13.5132 20.9619C13.5132 21.0498 13.4473 21.1597 13.3154 21.2915C13.1836 21.4233 13.0225 21.5625 12.832 21.709C12.6416 21.8555 12.4585 21.9653 12.2827 22.0386C12.1069 22.1118 11.9751 22.1558 11.8872 22.1704C11.7407 22.1704 11.5942 22.0972 11.4478 21.9507C11.3013 21.8042 11.1621 21.6357 11.0303 21.4453C10.8984 21.2549 10.7812 21.0571 10.6787 20.8521C10.5762 20.647 10.4956 20.4858 10.437 20.3687C9.27979 21.7456 7.81494 22.4341 6.04248 22.4341C5.44189 22.4341 4.89258 22.3462 4.39453 22.1704C3.89648 21.9946 3.45703 21.7383 3.07617 21.4014C2.69531 21.0645 2.41699 20.6543 2.24121 20.1709C2.06543 19.6875 1.96289 19.1309 1.93359 18.501C1.93359 17.7832 2.07275 17.1606 2.35107 16.6333C2.62939 16.106 2.99561 15.6592 3.44971 15.293C3.90381 14.9268 4.43848 14.6631 5.05371 14.502C5.66895 14.3408 6.30615 14.2529 6.96533 14.2383C7.52197 14.2383 8.07129 14.2822 8.61328 14.3701C9.15527 14.458 9.71191 14.5679 10.2832 14.6997ZM10.2173 17.0068V16.3696C9.76318 16.2524 9.30908 16.1646 8.85498 16.106C8.40088 16.0474 7.93213 16.0181 7.44873 16.0181C7.05322 16.0181 6.67969 16.0547 6.32812 16.1279C5.97656 16.2012 5.66162 16.3257 5.3833 16.5015C5.10498 16.6772 4.88525 16.9116 4.72412 17.2046C4.56299 17.4976 4.48242 17.8784 4.48242 18.3472C4.48242 19.0356 4.6582 19.563 5.00977 19.9292C5.36133 20.2954 5.88867 20.4785 6.5918 20.4785C6.94336 20.4785 7.30225 20.4346 7.66846 20.3467C8.03467 20.2588 8.37891 20.127 8.70117 19.9512C9.02344 19.7754 9.30908 19.5557 9.55811 19.292C9.80713 19.0283 9.98291 18.6987 10.0854 18.3032C10.144 18.0981 10.1807 17.8857 10.1953 17.666C10.21 17.4463 10.2173 17.2266 10.2173 17.0068ZM40.3418 28.5645C40.5176 28.5645 40.6787 28.6157 40.8252 28.7183C40.9717 28.8208 41.0449 28.9746 41.0449 29.1797C41.0449 29.2969 41.0083 29.4067 40.9351 29.5093C40.8618 29.6118 40.7812 29.6997 40.6934 29.7729C39.5361 30.6958 38.2104 31.5015 36.7163 32.1899C35.2222 32.8784 33.6548 33.4644 32.0142 33.9478C30.3735 34.4312 28.7402 34.7827 27.1143 35.0024C25.4883 35.2222 23.9355 35.3394 22.4561 35.354C20.4346 35.354 18.4204 35.1709 16.4136 34.8047C14.4067 34.4385 12.4438 33.8965 10.5249 33.1787C8.60596 32.4609 6.78223 31.5747 5.05371 30.52C3.3252 29.4653 1.70654 28.2422 0.197754 26.8506C0.065918 26.7188 0 26.5869 0 26.4551C0 26.3525 0.0366211 26.272 0.109863 26.2134C0.183105 26.1548 0.270996 26.1182 0.373535 26.1035C0.476074 26.1035 0.585937 26.1401 0.703125 26.2134C4.1748 28.1323 7.75635 29.5972 11.4478 30.6079C15.1392 31.6187 18.9844 32.124 22.9834 32.124C25.9277 32.124 28.8135 31.8237 31.6406 31.2231C34.4678 30.6226 37.2437 29.7656 39.9683 28.6523C40.0415 28.623 40.1001 28.6011 40.144 28.5864C40.188 28.5718 40.2539 28.5645 40.3418 28.5645ZM45 26.8286C45 27.3853 44.9268 27.9785 44.7803 28.6084C44.6338 29.2383 44.4287 29.8682 44.165 30.498C43.9014 31.1279 43.5864 31.7065 43.2202 32.2339C42.854 32.7612 42.4585 33.208 42.0337 33.5742C41.9751 33.6182 41.9165 33.6548 41.8579 33.6841C41.7993 33.7134 41.7261 33.7354 41.6382 33.75C41.4771 33.75 41.3965 33.6621 41.3965 33.4863C41.3965 33.3691 41.4697 33.1128 41.6162 32.7173C41.7627 32.3218 41.9385 31.8604 42.1436 31.333C42.3486 30.8057 42.5171 30.271 42.6489 29.729C42.7808 29.187 42.8613 28.6963 42.8906 28.2568C42.8906 27.9785 42.832 27.7661 42.7148 27.6196C42.5977 27.4731 42.4365 27.356 42.2314 27.2681C42.0264 27.1802 41.814 27.1362 41.5942 27.1362C41.3745 27.1362 41.1475 27.1216 40.9131 27.0923H40.5615C39.9463 27.0923 39.3457 27.1216 38.7598 27.1802C38.1738 27.2388 37.5732 27.3047 36.958 27.3779H36.8701C36.7969 27.3779 36.731 27.3633 36.6724 27.334C36.6138 27.3047 36.5771 27.2388 36.5625 27.1362C36.5625 27.0483 36.5918 26.9678 36.6504 26.8945C36.709 26.8213 36.7749 26.7554 36.8481 26.6968C37.1704 26.4478 37.5366 26.2354 37.9468 26.0596C38.3569 25.8838 38.7891 25.7446 39.2432 25.6421C39.6973 25.5396 40.1514 25.459 40.6055 25.4004C41.0596 25.3418 41.4844 25.3125 41.8799 25.3125C42.0117 25.3125 42.2241 25.3198 42.5171 25.3345C42.8101 25.3491 43.1104 25.3784 43.418 25.4224C43.7256 25.4663 44.0186 25.5249 44.2969 25.5981C44.5752 25.6714 44.751 25.7813 44.8242 25.9277C44.8975 26.0449 44.9414 26.1841 44.9561 26.3452C44.9707 26.5063 44.9854 26.6675 45 26.8286Z" fill="#DC143C"/>
</svg>
