<svg width="45" height="45" viewBox="0 0 45 45" fill="none" xmlns="http://www.w3.org/2000/svg">
<path fill-rule="evenodd" clip-rule="evenodd" d="M20.9981 1.71375C21.4476 1.42986 21.9684 1.27917 22.5 1.27917C23.0316 1.27917 23.5524 1.42986 24.0019 1.71375L39.9394 11.7806C40.3405 12.0339 40.6709 12.3846 40.9001 12.7999C41.1292 13.2153 41.2496 13.6819 41.25 14.1563V30.84C41.2499 31.3147 41.1297 31.7816 40.9005 32.1974C40.6714 32.6131 40.3407 32.964 39.9394 33.2175L24.0019 43.2825C23.5524 43.5664 23.0316 43.7171 22.5 43.7171C21.9684 43.7171 21.4476 43.5664 20.9981 43.2825L5.06062 33.2175C4.65955 32.9642 4.32906 32.6135 4.09991 32.1982C3.87076 31.7828 3.75039 31.3162 3.75 30.8419V14.1563C3.75007 13.6816 3.87029 13.2146 4.09946 12.7989C4.32862 12.3832 4.65928 12.0322 5.06062 11.7787L20.9981 1.71375ZM24.2269 28.1437C25.4031 27.7945 26.4408 27.0865 27.195 26.1187L32.3438 29.0625C30.9369 31.1599 28.8932 32.7497 26.5141 33.5973C24.1351 34.4449 21.5466 34.5056 19.1304 33.7703C16.7143 33.035 14.5984 31.5427 13.0948 29.5135C11.5913 27.4843 10.7796 25.0256 10.7796 22.5C10.7796 19.9744 11.5913 17.5157 13.0948 15.4865C14.5984 13.4573 16.7143 11.965 19.1304 11.2297C21.5466 10.4944 24.1351 10.5551 26.5141 11.4027C28.8932 12.2503 30.9369 13.8401 32.3438 15.9375L27.195 18.8812C26.5368 18.0349 25.6601 17.3842 24.6594 16.9993C23.6587 16.6144 22.572 16.5099 21.5163 16.697C20.4605 16.8841 19.4759 17.3558 18.6685 18.0612C17.8611 18.7666 17.2614 19.679 16.9343 20.7001C16.6071 21.7211 16.5647 22.812 16.8118 23.8553C17.0588 24.8987 17.5859 25.8548 18.3363 26.6206C19.0866 27.3865 20.0317 27.9331 21.0697 28.2015C22.1078 28.4699 23.1994 28.4499 24.2269 28.1437Z" fill="#DC143C"/>
</svg>
