<svg width="45" height="45" viewBox="0 0 45 45" fill="none" xmlns="http://www.w3.org/2000/svg">
<path d="M6.61432 40.1214L3.07971 0.475342H41.9203L38.3822 40.1154L22.4765 44.5251L6.61432 40.1214Z" fill="#DC143C"/>
<path d="M22.5004 41.1546L35.3531 37.5912L38.3769 3.71674H22.5004V41.1546Z" fill="#E75D78"/>
<path d="M22.5004 18.0805H28.9347L29.379 13.1014H22.5004V8.23889H34.6933L34.5765 9.54354L33.3812 22.943H22.5004V18.0805Z" fill="white"/>
<path d="M22.5292 30.7087L22.5078 30.715L17.0926 29.2528L16.7464 25.3748H11.866L12.5469 33.0096L22.5071 35.774L22.5292 35.7676V30.7087Z" fill="#EBEBEB"/>
<path d="M28.5212 22.7373L27.9355 29.2489L22.5123 30.7129V35.7718L32.4805 33.0093L32.5537 32.1877L33.3995 22.7373H28.5212Z" fill="white"/>
<path d="M22.5169 8.23889V13.1014H10.7719L10.6745 12.0087L10.453 9.54354L10.3367 8.23889H22.5169ZM22.5004 18.0812V22.9437H17.1535L17.0561 21.851L16.8342 19.3859L16.7182 18.0812H22.5004Z" fill="#EBEBEB"/>
</svg>
