<svg width="45" height="45" viewBox="0 0 45 45" fill="none" xmlns="http://www.w3.org/2000/svg">
<path d="M34.4531 0H10.5469C4.722 0 0 4.722 0 10.5469V34.4531C0 40.278 4.722 45 10.5469 45H34.4531C40.278 45 45 40.278 45 34.4531V10.5469C45 4.722 40.278 0 34.4531 0Z" fill="#DC143C"/>
<path d="M24.818 21.4669H28.4597V18.1721H24.818V21.4669ZM20.4829 21.4669H24.1244V18.1721H20.4829V21.4669ZM16.2343 21.4669H19.8759V18.1721H16.2343V21.4669ZM11.9856 21.4669H15.5408V18.1721H11.9858L11.9856 21.4669ZM7.65053 21.4669H11.2922V18.1721H7.65053V21.4669ZM11.9858 17.4785H15.5406V14.1838H11.9858V17.4785ZM16.2345 17.4785H19.8759V14.1838H16.2343L16.2345 17.4785ZM20.4829 17.4785H24.1244V14.1838H20.4829V17.4785ZM20.4829 13.49H24.1244V10.1953H20.4829V13.49ZM40.0781 19.9932C40.0781 19.9932 38.5174 18.5191 35.3094 19.0394C34.9625 16.5248 32.2747 15.0509 32.2747 15.0509C32.2747 15.0509 29.7603 18.0856 31.581 21.4671C31.0609 21.7273 30.1938 22.0741 28.8932 22.0741H5.04949C4.61584 23.7215 4.61584 34.6461 16.5811 34.6461C25.1648 34.6461 31.581 30.6578 34.6157 23.3745C39.1243 23.7213 40.0781 19.9932 40.0781 19.9932Z" fill="white"/>
</svg>
