<svg width="45" height="45" viewBox="0 0 45 45" fill="none" xmlns="http://www.w3.org/2000/svg">
<path d="M44.1507 20.4947L24.5025 0.849378C24.2335 0.580227 23.9141 0.366716 23.5625 0.221045C23.211 0.0753741 22.8342 0.000396729 22.4536 0.000396729C22.0731 0.000396729 21.6963 0.0753741 21.3447 0.221045C20.9931 0.366716 20.6737 0.580227 20.4047 0.849378L16.3266 4.9275L21.5016 10.1025C22.1119 9.89412 22.7685 9.86152 23.3965 10.0084C24.0245 10.1553 24.5985 10.4758 25.053 10.9333C25.5076 11.3908 25.8244 11.9669 25.9672 12.5957C26.1101 13.2246 26.0733 13.881 25.861 14.49L30.8475 19.4794C31.5853 19.2196 32.3895 19.2188 33.1278 19.4771C33.866 19.7355 34.4943 20.2375 34.9092 20.9005C35.324 21.5636 35.5007 22.3482 35.4102 23.125C35.3196 23.9019 34.9672 24.6248 34.411 25.1747C33.8479 25.7413 33.1055 26.0947 32.3107 26.1747C31.516 26.2548 30.7181 26.0564 30.0533 25.6134C29.3886 25.1705 28.8982 24.5105 28.6661 23.7462C28.4339 22.9819 28.4743 22.1607 28.7803 21.4228L24.1313 16.7709V29.0138C24.8379 29.3635 25.4034 29.945 25.7333 30.6611C26.0633 31.3773 26.1378 32.1849 25.9445 32.9493C25.7512 33.7137 25.3018 34.3888 24.6711 34.8621C24.0404 35.3353 23.2665 35.5781 22.4785 35.5499C21.6905 35.5218 20.936 35.2244 20.3407 34.7074C19.7453 34.1904 19.3452 33.4849 19.2069 32.7087C19.0686 31.9324 19.2006 31.1322 19.5808 30.4414C19.961 29.7506 20.5665 29.211 21.2963 28.9125V16.5572C20.8752 16.3847 20.4925 16.1305 20.1701 15.8093C19.8477 15.4882 19.5921 15.1064 19.418 14.686C19.2439 14.2656 19.1547 13.8149 19.1556 13.3598C19.1564 12.9048 19.2474 12.4544 19.4232 12.0347L14.3241 6.93282L0.852216 20.4047C0.583065 20.6737 0.369555 20.9931 0.223883 21.3447C0.0782122 21.6962 0.00323486 22.0731 0.00323486 22.4536C0.00323486 22.8341 0.0782122 23.211 0.223883 23.5625C0.369555 23.9141 0.583065 24.2335 0.852216 24.5025L20.5003 44.1506C20.7694 44.4198 21.0888 44.6333 21.4403 44.779C21.7919 44.9246 22.1687 44.9996 22.5492 44.9996C22.9298 44.9996 23.3066 44.9246 23.6582 44.779C24.0097 44.6333 24.3291 44.4198 24.5982 44.1506L44.1535 24.5953C44.4226 24.3263 44.6361 24.0069 44.7818 23.6553C44.9275 23.3038 45.0024 22.927 45.0024 22.5464C45.0024 22.1659 44.9275 21.7891 44.7818 21.4375C44.6361 21.0859 44.4226 20.7665 44.1535 20.4975" fill="#DC143C"/>
</svg>
