<svg width="45" height="45" viewBox="0 0 45 45" fill="none" xmlns="http://www.w3.org/2000/svg">
<path d="M23.5399 0.290143C23.217 0.105123 22.8513 0.00778198 22.4791 0.00778198C22.1069 0.00778198 21.7412 0.105123 21.4183 0.290143L3.90342 10.4626C3.23721 10.8395 2.86279 11.5507 2.86279 12.3048V32.6912C2.86279 33.4446 3.27869 34.1562 3.90271 34.5334L21.4176 44.7055C21.7405 44.8906 22.1063 44.988 22.4786 44.988C22.8508 44.988 23.2166 44.8906 23.5396 44.7055L41.0544 34.533C41.7203 34.1562 42.0944 33.4446 42.0944 32.6908V12.3048C42.0944 11.551 41.6785 10.8398 41.0544 10.4626L23.5399 0.290143Z" fill="url(#paint0_linear_183_40)"/>
<path d="M41.0966 10.4626L23.4988 0.290143C23.3262 0.201954 23.1448 0.131855 22.9578 0.0809631L3.23792 34.0306C3.40127 34.2309 3.59843 34.4011 3.82045 34.5334L21.4186 44.7055C21.9178 44.9983 22.5 45.0824 23.0411 44.9147L41.5544 10.8395C41.4328 10.6803 41.2762 10.5513 41.0966 10.4626Z" fill="url(#paint1_linear_183_40)"/>
<path d="M41.097 34.5323C41.5962 34.2395 41.9706 33.7371 42.1369 33.1929L22.8748 0.0380597C22.3755 -0.0456122 21.8345 -0.00377622 21.3771 0.289427L3.90375 10.4201L22.7496 44.998C22.9992 44.9558 23.291 44.8721 23.5406 44.7466L41.097 34.5323Z" fill="url(#paint2_linear_183_40)"/>
<defs>
<linearGradient id="paint0_linear_183_40" x1="29.6117" y1="7.86545" x2="13.6161" y2="40.2937" gradientUnits="userSpaceOnUse">
<stop stop-color="#DC143C"/>
<stop offset="0.5" stop-color="#A90F2E"/>
<stop offset="0.75" stop-color="#900D27"/>
<stop offset="0.875" stop-color="#830C24"/>
<stop offset="1" stop-color="#760B20"/>
</linearGradient>
<linearGradient id="paint1_linear_183_40" x1="19.8178" y1="24.8787" x2="64.4471" y2="-7.89311" gradientUnits="userSpaceOnUse">
<stop stop-color="#760B20"/>
<stop offset="0.5" stop-color="#A90F2E"/>
<stop offset="0.75" stop-color="#C31235"/>
<stop offset="0.875" stop-color="#CF1339"/>
<stop offset="1" stop-color="#DC143C"/>
</linearGradient>
<linearGradient id="paint2_linear_183_40" x1="2.22176" y1="22.4911" x2="42.75" y2="22.4911" gradientUnits="userSpaceOnUse">
<stop offset="0.092" stop-color="#DC143C"/>
<stop offset="0.546" stop-color="#A90F2E"/>
<stop offset="0.773" stop-color="#900D27"/>
<stop offset="1" stop-color="#760B20"/>
</linearGradient>
</defs>
</svg>
