<svg width="45" height="45" viewBox="0 0 45 45" fill="none" xmlns="http://www.w3.org/2000/svg">
<path d="M32.9797 32.3831C33.2557 30.0864 33.1731 29.7492 34.8838 30.1215L35.318 30.1595C36.6335 30.2192 38.3544 29.9478 39.3655 29.4782C41.5421 28.4681 42.8323 26.7824 40.6867 27.225C35.7915 28.235 35.4551 26.5774 35.4551 26.5774C40.6241 18.9081 42.7848 9.17225 40.9194 6.78901C35.8323 0.288972 27.0267 3.36268 26.8794 3.44214L26.8323 3.45092C25.8652 3.25018 24.7827 3.1303 23.5667 3.11061C21.3515 3.07405 19.6706 3.69139 18.3955 4.65819C18.3955 4.65819 2.68666 -1.81372 3.41756 12.7972C3.57295 15.9054 7.87256 36.316 13.0012 30.151C14.8757 27.8968 16.6869 25.9907 16.6869 25.9907C17.5862 26.588 18.6634 26.8931 19.7926 26.7834L19.8802 26.7089C19.8528 26.9887 19.8647 27.2626 19.915 27.5867C18.5942 29.063 18.9823 29.3221 16.341 29.8656C13.6684 30.4161 15.2385 31.3966 16.2633 31.6529C17.5061 31.9637 20.3808 32.4039 22.3235 29.6849L22.2462 29.9949C22.7644 30.4098 22.7296 32.9751 22.8027 34.8078C22.8762 36.6409 22.9989 38.3512 23.3726 39.3599C23.7463 40.3685 24.1872 42.9655 27.6585 42.2216C30.5596 41.6014 32.7776 40.7067 32.9797 32.3831Z" fill="black"/>
<path d="M26.5282 44.0353C24.9929 44.0353 23.9931 43.4415 23.3859 42.8681C22.4694 42.0033 22.1059 40.8892 21.8886 40.2237L21.7948 39.9459C21.3574 38.7654 21.209 37.0656 21.1212 34.8768C21.1078 34.5481 21.0987 34.2095 21.0885 33.8506C21.0811 33.5879 21.0719 33.2585 21.0586 32.914C20.5055 33.1777 19.9184 33.3633 19.3141 33.4652C18.2317 33.6502 17.068 33.5904 15.8548 33.287C14.9987 33.0729 14.1092 32.6292 13.6023 31.944C12.1247 33.2381 10.7153 33.0627 9.94745 32.8064C8.59288 32.3547 7.38069 31.0852 6.24128 28.9262C5.42952 27.3881 4.64448 25.3842 3.9076 22.9697C2.6244 18.765 1.80913 14.3364 1.73671 12.8823C1.50889 8.33134 2.73409 5.07657 5.37749 3.20942C9.54737 0.264034 15.8653 1.99618 18.1687 2.78263C19.7163 1.84993 21.5371 1.39607 23.5944 1.42876C24.6994 1.44669 25.7516 1.54372 26.7289 1.7181C27.7485 1.39747 29.7622 0.937276 32.0674 0.966104C36.3146 1.01673 39.8341 2.67189 42.2448 5.75263C43.9653 7.9506 43.1146 12.5663 42.4547 15.1221C41.5258 18.7172 39.8985 22.5408 37.8995 25.8694C38.4423 25.8733 39.2287 25.8082 40.3467 25.5772C42.5524 25.122 43.1975 26.3046 43.3726 26.8341C44.074 28.9582 41.0252 30.5634 40.0742 31.005C38.8557 31.5707 36.869 31.9152 35.242 31.8407L35.171 31.8361L34.7435 31.7985L34.7013 32.155L34.6605 32.5034C34.5512 36.7218 33.9486 39.3933 32.7087 41.1585C31.4089 43.0091 29.6026 43.5277 28.0114 43.8687C27.4686 43.9847 26.9754 44.0353 26.5282 44.0353ZM23.2973 28.6822C24.2884 29.4754 24.3752 30.9677 24.4529 33.7567C24.4628 34.1047 24.4719 34.4342 24.4842 34.7418C24.5215 35.6734 24.609 37.8549 24.9507 38.7767C24.9989 38.9071 25.0421 39.0393 25.0878 39.1795C25.4686 40.3453 25.6595 40.93 27.3058 40.5781C28.6878 40.2817 29.3983 40.0159 29.9545 39.2242C30.7628 38.0732 31.2149 35.7578 31.2978 32.3424L32.9794 32.3831L31.3094 32.1827L31.3587 31.7658C31.5186 30.3912 31.6339 29.3984 32.5526 28.7417C33.2898 28.215 34.1297 28.266 34.7987 28.3866C34.0636 27.8311 33.8604 27.1797 33.8062 26.9125L33.666 26.2217L34.0601 25.637C36.3301 22.269 38.2018 18.1297 39.196 14.2801C40.2177 10.3247 39.9062 8.22411 39.5947 7.82685C35.4712 2.55798 28.3208 4.73345 27.5741 4.98025L27.4479 5.04845L26.8151 5.16622L26.4909 5.09907C25.5973 4.91345 24.6044 4.81079 23.5403 4.79357C21.8682 4.76544 20.5193 5.1606 19.4133 5.99978L18.6458 6.58161L17.7553 6.21493C15.8526 5.43692 10.2642 3.87282 7.3153 5.96146C5.67842 7.12091 4.93276 9.39271 5.0987 12.7139C5.15354 13.8104 5.8985 17.9613 7.12756 21.9871C8.82596 27.5506 10.3693 29.3987 11.0137 29.6135C11.1262 29.6515 11.418 29.4247 11.7084 29.076C12.9193 27.6246 14.173 26.2095 15.468 24.8326L16.4419 23.8078L17.6192 24.5901C18.0939 24.9054 18.6173 25.0843 19.1549 25.1181L21.9628 22.7233L21.556 26.8745C21.5469 26.9677 21.5423 27.0946 21.5789 27.3301L21.7012 28.1169L21.1704 28.7104L21.1092 28.7793L22.6519 29.4912L23.2973 28.6822Z" fill="black"/>
<path d="M40.6867 27.225C35.7912 28.235 35.4547 26.5774 35.4547 26.5774C40.6238 18.9077 42.7845 9.17156 40.9198 6.78902C35.8327 0.289333 27.0264 3.36304 26.8794 3.44285L26.832 3.45129C25.8648 3.25054 24.7824 3.13101 23.5656 3.11132C21.3504 3.07511 19.6703 3.69211 18.3952 4.6589C18.3952 4.6589 2.68595 -1.81266 3.4165 12.7979C3.57189 15.9064 7.8715 36.3171 13.0001 30.1521C14.8746 27.8979 16.6855 25.9917 16.6855 25.9917C17.5852 26.589 18.662 26.8942 19.7909 26.7845L19.8788 26.71C19.8513 26.9898 19.864 27.2637 19.9139 27.5878C18.5927 29.064 18.9809 29.3231 16.3396 29.8666C13.667 30.4172 15.2371 31.3977 16.2622 31.654C17.5047 31.9648 20.3797 32.4049 22.3221 29.6859L22.2444 29.996C22.7623 30.4109 23.1258 32.6932 23.065 34.7621C23.0042 36.8311 22.963 38.2518 23.3712 39.3613C23.779 40.4708 24.1854 42.9669 27.6574 42.223C30.5585 41.6014 32.0618 39.9902 32.2713 37.3029C32.4197 35.3921 32.7554 35.6748 32.7769 33.9666L33.0465 33.158C33.3573 30.568 33.0958 29.7327 34.8835 30.1212L35.3176 30.1591C36.6332 30.2189 38.3548 29.9475 39.3655 29.4778C41.5417 28.4685 42.8323 26.7824 40.6867 27.225Z" fill="#DC143C"/>
<path d="M26.7036 42.9986C23.8096 42.9986 22.8927 40.7067 22.5176 39.7695C21.9684 38.3959 21.85 33.0655 21.9723 28.6942C21.9741 28.6205 21.9905 28.5478 22.0205 28.4805C22.0505 28.4131 22.0936 28.3524 22.1472 28.3017C22.2008 28.2511 22.2638 28.2115 22.3328 28.1854C22.4017 28.1592 22.4752 28.1469 22.5489 28.1493C22.6225 28.1513 22.695 28.1678 22.7623 28.1978C22.8295 28.2279 22.8902 28.2709 22.9408 28.3244C22.9914 28.3779 23.031 28.4409 23.0572 28.5097C23.0835 28.5785 23.0959 28.6518 23.0938 28.7255C22.9528 33.7672 23.1529 38.3361 23.5593 39.3529C24.1935 40.9381 25.1554 42.3246 27.8747 41.7421C30.4562 41.1884 31.423 40.2096 31.8537 37.7132C32.1842 35.7975 32.8377 30.3476 32.9182 29.2722C32.9236 29.1987 32.9434 29.127 32.9766 29.0611C33.0097 28.9953 33.0555 28.9367 33.1114 28.8886C33.1672 28.8406 33.232 28.804 33.302 28.781C33.372 28.758 33.4459 28.749 33.5194 28.7547C33.6677 28.7659 33.8054 28.8355 33.9025 28.9482C33.9995 29.0609 34.0478 29.2075 34.0369 29.3558C33.9529 30.4756 33.3025 35.9149 32.9593 37.9041C32.451 40.8526 31.1365 42.19 28.1099 42.839C27.5956 42.949 27.1283 42.9982 26.7036 42.9986ZM11.0113 31.8045C10.7583 31.8037 10.5071 31.7621 10.2674 31.6814C8.38759 31.0542 6.59708 27.9928 4.94544 22.5812C3.68825 18.462 2.89161 14.1624 2.82165 12.7649C2.61458 8.62208 3.68122 5.6911 5.99274 4.05387C10.5655 0.813875 18.2581 3.89919 18.5833 4.03208C18.721 4.08835 18.8308 4.19704 18.8884 4.33424C18.946 4.47144 18.9468 4.62592 18.8905 4.76368C18.8342 4.90144 18.7256 5.01121 18.5884 5.06883C18.4512 5.12645 18.2967 5.12722 18.1589 5.07094C18.0847 5.04071 10.7083 2.08548 6.63892 4.97075C4.66243 6.37208 3.75505 8.97575 3.94173 12.709C4.00044 13.8864 4.7447 18.0826 6.01806 22.2536C7.49251 27.0847 9.17052 30.1331 10.6221 30.6172C10.8499 30.6932 11.5432 30.9241 12.5343 29.7324C13.69 28.3443 14.889 26.9929 16.1297 25.6802C16.2335 25.5767 16.3737 25.5179 16.5203 25.5164C16.6669 25.515 16.8083 25.571 16.9142 25.6724C17.02 25.7738 17.082 25.9127 17.0867 26.0592C17.0915 26.2058 17.0387 26.3484 16.9397 26.4565C16.9228 26.4741 15.2357 28.2379 13.397 30.4499C12.5262 31.4972 11.6916 31.8045 11.0113 31.8045ZM35.4199 27.0777C35.3182 27.0776 35.2185 27.0498 35.1313 26.9974C35.0442 26.9449 34.973 26.8698 34.9252 26.78C34.8775 26.6902 34.8551 26.5891 34.8603 26.4875C34.8656 26.386 34.8984 26.2877 34.9552 26.2034C40.1804 18.4497 42.0145 9.08087 40.4438 7.07344C38.4666 4.54712 35.6748 3.2277 32.1455 3.15141C29.5323 3.09516 27.4553 3.76243 27.1157 3.8788L27.0302 3.9136C26.6889 4.02083 26.427 3.8338 26.3282 3.61512C26.2718 3.48984 26.2633 3.34827 26.3042 3.21713C26.345 3.08598 26.4325 2.97432 26.55 2.90321C26.5662 2.89372 26.6175 2.87192 26.7008 2.84134C27.2777 2.63005 29.3864 1.99723 31.9982 2.02712C35.9033 2.0686 39.1293 3.57434 41.3265 6.38227C42.3661 7.71083 42.3686 10.7715 41.3332 14.78C40.2778 18.867 38.2918 23.259 35.885 26.8306C35.7775 26.9912 35.6003 27.0777 35.4199 27.0777ZM35.6871 30.6672C34.7949 30.6672 33.995 30.5413 33.5162 30.2544C33.024 29.9595 32.9302 29.5587 32.9179 29.346C32.7836 26.987 34.085 26.5764 34.7488 26.389C34.6563 26.2491 34.5249 26.0845 34.3888 25.9147C34.0017 25.431 33.4716 24.7686 33.0631 23.7779C32.9991 23.6232 32.7987 23.2636 32.5667 22.847C31.3084 20.5907 28.6903 15.8956 30.3722 13.4912C31.1506 12.3785 32.7006 11.9405 34.9843 12.1848C34.3125 10.138 31.1133 3.73536 23.522 3.61091C21.239 3.57294 19.3665 4.27501 17.9596 5.69567C14.8096 8.87696 14.9235 14.6331 14.9252 14.6907C14.9272 14.7644 14.9146 14.8377 14.8882 14.9065C14.8618 14.9752 14.8221 15.0381 14.7714 15.0916C14.7207 15.145 14.66 15.188 14.5927 15.2179C14.5254 15.2479 14.4529 15.2643 14.3793 15.2663C14.3056 15.2682 14.2323 15.2556 14.1636 15.2292C14.0948 15.2028 14.0319 15.1632 13.9784 15.1125C13.925 15.0618 13.8821 15.001 13.8521 14.9337C13.8221 14.8665 13.8057 14.7939 13.8038 14.7203C13.7967 14.4647 13.6793 8.42415 17.1626 4.90606C18.7928 3.25969 20.9387 2.44688 23.5406 2.48942C28.3971 2.56923 31.5232 5.03825 33.2902 7.09524C35.2164 9.33716 36.1607 11.81 36.2384 12.6355C36.2964 13.2493 35.8559 13.372 35.7669 13.3903L35.5644 13.3949C33.3232 13.0359 31.8853 13.2852 31.2908 14.1346C30.0115 15.9631 32.4883 20.4043 33.5458 22.301C33.8158 22.7848 34.0105 23.1346 34.0998 23.3504C34.4472 24.1928 34.9003 24.7588 35.2642 25.2137C35.5845 25.6138 35.8618 25.9608 35.961 26.3679C36.007 26.4488 36.6606 27.4156 40.5387 26.615C41.5108 26.4147 42.0936 26.5859 42.2719 27.1248C42.6224 28.1848 40.6558 29.4212 39.567 29.9268C38.5914 30.3803 37.0343 30.6672 35.6871 30.6672ZM34.0362 29.2535C34.1592 29.3776 34.7748 29.5917 36.0496 29.5369C37.183 29.4884 38.3783 29.2419 39.0955 28.909C40.0127 28.4829 40.6252 28.0065 40.9423 27.6813L40.7665 27.7137C38.2869 28.2256 36.533 28.1574 35.5535 27.5108C35.4877 27.4674 35.4243 27.4204 35.3637 27.3699C35.2575 27.4117 35.1594 27.4391 35.0895 27.4588C34.534 27.6145 33.9595 27.7759 34.0362 29.2535ZM18.0183 32.3877C17.4024 32.3877 16.7541 32.3037 16.0921 32.1381C15.4062 31.9665 14.2499 31.4501 14.2675 30.6018C14.2875 29.6501 15.6716 29.3646 16.1926 29.2574C18.0749 28.8696 18.1976 28.7142 18.7858 27.9672C18.9573 27.7495 19.1707 27.4785 19.4618 27.1536C19.8939 26.6699 20.366 26.4249 20.8652 26.4249C21.2129 26.4249 21.4981 26.5426 21.6865 26.621C22.287 26.8699 22.7879 27.4718 22.994 28.1915C23.1799 28.8408 23.091 29.4659 22.7443 29.9514C21.6063 31.545 19.9719 32.3877 18.0183 32.3877ZM15.4793 30.6499C15.6484 30.7807 15.9873 30.9554 16.3645 31.0497C16.9379 31.1931 17.4941 31.2659 18.0186 31.2659C19.6168 31.2659 20.9 30.6042 21.832 29.2992C22.0265 29.0271 21.9681 28.6815 21.9161 28.4998C21.8071 28.119 21.5364 27.7727 21.2576 27.6571C21.1064 27.5945 20.9809 27.5467 20.8656 27.5467C20.8037 27.5467 20.6153 27.5467 20.2982 27.9014C20.0793 28.1475 19.869 28.401 19.6675 28.6615C18.9348 29.5917 18.5991 29.9074 16.4194 30.3564C15.8875 30.4654 15.6147 30.5765 15.4793 30.6499ZM19.7926 28.0624C19.6587 28.0622 19.5293 28.0141 19.4277 27.9268C19.3262 27.8395 19.2592 27.7188 19.2389 27.5864C19.2248 27.4933 19.2155 27.3996 19.2108 27.3055C17.782 27.2788 16.4036 26.6657 15.357 25.5737C14.0337 24.1931 13.4315 22.2803 13.705 20.3259C14.002 18.2036 13.8909 16.3301 13.8312 15.3236C13.8147 15.0437 13.8027 14.8416 13.8034 14.7016C13.8045 14.5241 13.808 14.0534 15.3816 13.2557C15.9413 12.972 17.0634 12.477 18.2893 12.35C20.3203 12.1402 21.6591 13.0447 22.0599 14.8975C23.1416 19.8995 22.1456 22.1119 21.4183 23.7277C21.2829 24.0286 21.1549 24.3127 21.0526 24.5879L20.9623 24.8305C20.578 25.8609 20.2458 26.7511 20.3477 27.4159C20.3589 27.4887 20.3557 27.563 20.3381 27.6346C20.3206 27.7061 20.2892 27.7735 20.2456 27.8329C20.202 27.8923 20.1471 27.9425 20.0841 27.9807C20.0211 28.0189 19.9512 28.0442 19.8784 28.0554L19.7926 28.0624ZM14.9288 14.857L14.9506 15.2575C15.0124 16.303 15.1277 18.2486 14.8156 20.4817C14.5902 22.0936 15.0824 23.6668 16.1666 24.7975C17.0234 25.6911 18.1508 26.1844 19.3096 26.1844H19.3335C19.4632 25.6377 19.6787 25.0604 19.9108 24.4385L20.0004 24.1974C20.1161 23.8866 20.2514 23.5856 20.3949 23.2671C21.0948 21.7118 21.9663 19.7757 20.9626 15.1348C20.764 14.2154 20.282 13.6835 19.4899 13.5081C17.8629 13.1488 15.4382 14.3726 14.9288 14.857ZM18.3143 14.619C18.2862 14.8173 18.6775 15.3468 19.1879 15.4174C19.6974 15.4888 20.1333 15.0747 20.1611 14.8764C20.1888 14.6781 19.7979 14.4594 19.2874 14.3884C18.777 14.3174 18.3414 14.4207 18.3143 14.619ZM19.305 15.6125L19.1619 15.6027C18.8455 15.5588 18.5256 15.3594 18.3066 15.069C18.2296 14.9671 18.1041 14.7695 18.129 14.593C18.1645 14.3343 18.4802 14.1792 18.9728 14.1792C19.0828 14.1792 19.1974 14.1873 19.3127 14.2035C19.582 14.2407 19.832 14.3184 20.0166 14.4215C20.3365 14.6 20.36 14.7994 20.3456 14.9024C20.3063 15.1882 19.8517 15.6125 19.305 15.6125ZM18.5003 14.6521C18.5161 14.7744 18.8192 15.178 19.2136 15.2325L19.3054 15.2388C19.6696 15.2388 19.9417 14.9523 19.9737 14.8584C19.9399 14.7945 19.7058 14.6356 19.2618 14.5737C19.1661 14.5602 19.0697 14.5532 18.9731 14.5529C18.6877 14.5529 18.5361 14.6173 18.5003 14.6521ZM33.8302 14.2144C33.8579 14.4127 33.467 14.9421 32.9569 15.0131C32.4471 15.0841 32.0108 14.6704 31.9827 14.4721C31.956 14.2738 32.3469 14.0548 32.8567 13.9841C33.3665 13.9127 33.802 14.0165 33.8302 14.2144ZM32.8391 15.1144C32.3483 15.1144 31.9247 14.7326 31.8899 14.4847C31.8495 14.1873 32.3392 13.9613 32.8433 13.8913C32.9544 13.8758 33.0645 13.8681 33.1703 13.8681C33.6055 13.8681 33.8938 13.9957 33.9226 14.2017C33.9413 14.335 33.839 14.5406 33.6628 14.7263C33.5465 14.8482 33.3021 15.0595 32.9692 15.1056L32.8391 15.1144ZM33.1706 14.0551C33.0731 14.0551 32.9728 14.0623 32.8697 14.0766C32.3631 14.1472 32.0608 14.3504 32.0755 14.4594C32.0924 14.5793 32.4158 14.9277 32.8395 14.9277L32.9439 14.9203C33.2206 14.882 33.4283 14.7013 33.5275 14.5972C33.6832 14.4338 33.7451 14.2798 33.7377 14.2274C33.7279 14.1578 33.5408 14.0551 33.1706 14.0551ZM34.5646 25.6015C34.4629 25.6016 34.3632 25.574 34.2761 25.5217C34.1889 25.4694 34.1176 25.3945 34.0698 25.3048C34.022 25.2151 33.9994 25.1141 34.0046 25.0126C34.0098 24.9111 34.0424 24.8129 34.0991 24.7286C35.2937 22.9444 35.075 21.125 34.8638 19.3655C34.7734 18.6159 34.6806 17.8407 34.7045 17.0968C34.7291 16.3315 34.8265 15.7001 34.9204 15.0894C35.0318 14.3659 35.1373 13.6825 35.0937 12.8711C35.0897 12.7975 35.1003 12.7239 35.1247 12.6544C35.1492 12.585 35.1871 12.521 35.2363 12.4662C35.2855 12.4114 35.345 12.3668 35.4115 12.335C35.4779 12.3032 35.5499 12.2848 35.6235 12.2808C35.697 12.2768 35.7706 12.2874 35.8401 12.3118C35.9096 12.3363 35.9735 12.3742 36.0284 12.4234C36.139 12.5228 36.2057 12.6621 36.2138 12.8106C36.2637 13.738 36.1445 14.5115 36.0292 15.2599C35.9402 15.8375 35.8481 16.4349 35.826 17.1327C35.8045 17.7915 35.8886 18.4911 35.9775 19.2315C36.2025 21.1025 36.4574 23.2232 35.0315 25.3526C34.98 25.4292 34.9105 25.492 34.8291 25.5354C34.7477 25.5788 34.6568 25.6015 34.5646 25.6015Z" fill="white"/>
</svg>
