<svg width="45" height="45" viewBox="0 0 45 45" fill="none" xmlns="http://www.w3.org/2000/svg">
<path d="M44.9873 26.8875C44.9733 27.3192 44.4009 27.7959 43.2366 28.4034C40.8347 29.6564 28.3978 34.7752 25.7456 36.1519C23.0948 37.5356 21.6295 37.5216 19.5342 36.5175C17.4389 35.5219 4.20469 30.1669 1.81688 29.032C0.63 28.4611 0.0225 27.9844 0 27.5302V32.078C0 32.5322 0.63 33.0075 1.81688 33.5798C4.20469 34.7231 17.4473 40.0697 19.5342 41.0653C21.6295 42.0694 23.0934 42.0834 25.7456 40.6997C28.3964 39.323 40.8333 34.2028 43.2366 32.9512C44.46 32.3212 45.0014 31.8234 45.0014 31.3762V26.8931C45.0005 26.8875 44.9958 26.8852 44.9873 26.8861V26.8875ZM44.9873 19.4752C44.9648 19.8998 44.4009 20.3766 43.2366 20.9911C40.8347 22.2356 28.3978 27.3558 25.7456 28.7325C23.0948 30.1162 21.6295 30.1022 19.5342 29.1066C17.4389 28.1025 4.20469 22.7559 1.81688 21.6141C0.63 21.0502 0.0225 20.5664 0 20.1122V24.66C0 25.1142 0.63 25.598 1.81688 26.1619C4.20469 27.3052 17.4389 32.6517 19.5342 33.6544C21.6295 34.65 23.0934 34.6655 25.7456 33.2887C28.3964 31.905 40.8333 26.7919 43.2366 25.5403C44.46 24.9033 45.0014 24.4055 45.0014 23.9583V19.4752H44.9873ZM44.9873 11.7773C45.0098 11.3231 44.4164 10.9209 43.207 10.4808C40.8713 9.62437 28.5005 4.7025 26.1337 3.83062C23.7684 2.96578 22.8009 3.00234 20.018 3.99937C17.235 5.00344 4.0725 10.1658 1.72969 11.0812C0.558281 11.5425 -0.0140625 11.9672 0.0084375 12.4214V16.9692C0.0084375 17.4234 0.631406 17.8987 1.82531 18.4711C4.20609 19.6144 17.4473 24.9609 19.5427 25.9636C21.6295 26.9592 23.1019 26.9747 25.7541 25.5895C28.3978 24.2128 40.8417 19.0927 43.245 17.8481C44.4614 17.2111 45.0028 16.7133 45.0028 16.2661V11.7759L44.9873 11.7773ZM16.1142 16.0847L26.5444 14.4886L23.3944 19.1025L16.1142 16.0847ZM39.1781 11.9236L32.3452 14.6264L26.1787 12.188L33.0047 9.49219L39.1781 11.9236ZM21.0727 7.45594L20.0616 5.59547L23.2116 6.82594L26.1773 5.85844L25.3716 7.77797L28.3964 8.91281L24.4997 9.315L23.6208 11.4173L22.2145 9.07312L17.7103 8.67094L21.0727 7.45594ZM13.3017 10.0856C16.3856 10.0856 18.8761 11.0531 18.8761 12.2386C18.8761 13.4325 16.3786 14.3986 13.3017 14.3986C10.2248 14.3986 7.72734 13.4311 7.72734 12.2386C7.72734 11.0517 10.2248 10.0856 13.3017 10.0856Z" fill="#DC143C"/>
</svg>
