<svg width="45" height="45" viewBox="0 0 45 45" fill="none" xmlns="http://www.w3.org/2000/svg">
<path d="M22.5019 9C16.5019 9 12.7519 12 11.2519 18C13.5019 15 16.1269 13.875 19.1269 14.625C20.8388 15.0525 22.0613 16.2937 23.4169 17.67C25.6238 19.9087 28.1756 22.5 33.7519 22.5C39.7519 22.5 43.5019 19.5 45.0019 13.5C42.7519 16.5 40.1269 17.625 37.1269 16.875C35.415 16.4475 34.1925 15.2062 32.8369 13.83C30.6319 11.5912 28.08 9 22.5019 9ZM11.2519 22.5C5.25189 22.5 1.50189 25.5 0.00189209 31.5C2.25189 28.5 4.87689 27.375 7.87689 28.125C9.58877 28.5525 10.8113 29.7938 12.1669 31.17C14.3738 33.4088 16.9256 36 22.5019 36C28.5019 36 32.2519 33 33.7519 27C31.5019 30 28.8769 31.125 25.8769 30.375C24.165 29.9475 22.9425 28.7063 21.5869 27.33C19.3819 25.0913 16.83 22.5 11.2519 22.5Z" fill="url(#paint0_linear_183_21)"/>
<defs>
<linearGradient id="paint0_linear_183_21" x1="22.5019" y1="9" x2="22.5019" y2="36" gradientUnits="userSpaceOnUse">
<stop stop-color="#DC143C"/>
<stop offset="1" stop-color="#333333"/>
</linearGradient>
</defs>
</svg>
