<svg width="45" height="45" viewBox="0 0 45 45" fill="none" xmlns="http://www.w3.org/2000/svg">
<path d="M22.6621 2.50874L2.99847 22.2093L22.6083 41.8609L42.3257 22.1604L22.6621 2.50874Z" fill="#DC143C"/>
<path d="M22.6083 41.9101L2.9447 22.2096L2.99849 22.1607L22.7159 2.41101L42.3795 22.1115L42.3257 22.1604L22.6083 41.9101ZM3.05228 22.2096L22.6083 41.8124L42.2719 22.1607L22.7159 2.55796L3.05228 22.2096Z" fill="black"/>
<path d="M22.6083 2.55762V0.842346L1.16684 22.3073H2.99848L22.6083 2.55762Z" fill="#CF1339"/>
<path d="M2.99847 22.3073H1.0589L1.11269 22.2585L22.6079 0.744614V2.55797L2.99812 22.3077L2.99847 22.3073ZM1.27441 22.2585H2.94433L22.5541 2.55797V0.940786L1.27441 22.2585Z" fill="black"/>
<path d="M22.5541 2.55762V0.842346L43.9956 22.3073H42.1639L22.5541 2.55762Z" fill="#CF1339"/>
<path d="M44.0497 22.3073H42.1102L22.5004 2.60683V0.793472L22.5542 0.842339L44.0497 22.3073ZM42.1643 22.2585H43.8342L22.6083 0.940425V2.55761L42.1643 22.2585Z" fill="black"/>
<path d="M22.6083 41.959V43.6743L1.16684 22.2585H2.99848L22.6083 41.959Z" fill="#A90F2E"/>
<path d="M22.6083 43.7723L22.5545 43.7235L1.05927 22.2096H2.99884L22.6086 41.9593V43.7727L22.6083 43.7723ZM1.27442 22.2585L22.5541 43.5765V41.9593L2.94434 22.2588L1.27442 22.2585Z" fill="black"/>
<path d="M11.7798 39.6067H7.63171L6.01557 38.6754V7.94813H4.72253L3.64499 6.86989V3.48856L4.77632 2.26337H19.2681L20.5611 3.58665V6.77216L19.4836 8.09544H18.406V18.289L28.6959 8.09544H28.1032L26.9181 6.82137V3.44005L28.1032 2.3618H42.7029L43.8342 3.53813V6.72364L11.7798 39.6067ZM8.06272 38.0384H11.1336L42.326 6.03704V4.12594L42.1105 3.88091H28.6963L28.4808 4.07708V6.13548L28.8039 6.4786H32.5209L16.8441 21.9646V6.4786H18.7836L19.0529 6.18469V4.22438L18.6757 3.83239H5.47663L5.20733 4.1263V6.23356L5.36905 6.42973H7.63171V37.7448L8.06272 38.0384Z" fill="black"/>
<path d="M22.5541 41.959V43.6743L43.9956 22.2093H42.1639L22.5541 41.959Z" fill="#760B20"/>
<path d="M22.5004 43.7723V41.959L42.1102 22.2093H44.0497L43.996 22.2581L22.5004 43.7723ZM22.6079 41.959V43.5762L43.8877 22.2581H42.2177L22.6079 41.959Z" fill="black"/>
<path d="M22.4466 43.9682L0.682037 22.2093L22.5007 0.352264L44.2652 22.1112L22.4466 43.9682ZM1.38235 22.2093L22.4466 43.3311L43.6187 22.1604L22.5545 1.03851L1.38235 22.2093Z" fill="black"/>
<path d="M19.1064 4.32211L19.8605 3.93012L19.0522 3.14613H5.15286L4.45255 3.83238V6.52781L5.26079 7.3118L5.63801 6.52781L5.15321 6.03773V4.12664L5.53044 3.78352H18.8371L19.1064 4.32211Z" fill="#FEFEFE"/>
<path d="M5.26114 7.36031L4.39911 6.5271V3.83168L5.15321 3.09656H19.1064L19.9684 3.92976L19.1064 4.37097L18.7833 3.83203H5.47665L5.15356 4.12593V5.98816L5.63837 6.47824L5.26114 7.36031ZM4.50704 6.47824L5.26114 7.21335L5.58423 6.5271L5.09942 6.03703V4.12593L5.47665 3.78281H18.7833L19.1064 4.32175L19.8067 3.92976L19.0526 3.19464H5.15321L4.4529 3.88089V6.47824H4.50704Z" fill="black"/>
<path d="M10.8098 38.2834H8.16996L7.73895 37.8422V6.52711H5.47629L4.99149 6.0859V4.1748L5.4225 3.73359H18.6216L19.1064 4.12558V5.98781L18.5678 6.52676H16.0896V23.3849L31.0662 8.19281V6.52676H28.8035L28.3725 6.08554V4.22332L28.9111 3.68437H41.8947L42.4332 4.22332V5.69355L10.8098 38.283V38.2834ZM8.2241 38.2345H10.8098L42.3257 5.64504V4.22367L41.8409 3.73359H28.9652L28.4804 4.22367V5.98781L28.9114 6.3798H31.2279V8.19316L16.0896 23.5814V6.42902H18.6216L19.1064 5.93894V4.12558L18.6754 3.78246H5.47629L5.04527 4.17445V5.98781L5.47629 6.3798H7.79274V37.7441L8.22375 38.2342L8.2241 38.2345Z" fill="black"/>
<path d="M7.73929 6.42938V37.7937L8.1703 38.2349L7.84722 38.8231L6.9314 37.941V7.26294L7.73929 6.42938Z" fill="#FEFEFE"/>
<path d="M7.84687 38.9697L6.87726 38.0384V7.26223L7.79308 6.38016V37.8425L8.22409 38.3326L7.84687 38.9697ZM6.98484 37.9895L7.84687 38.8227L8.11616 38.2838L7.73894 37.8425V6.52746L6.98484 7.26258V37.9895Z" fill="black"/>
<path d="M5.53042 6.42938L5.31491 7.1645H6.98483L7.90065 6.42938H5.53042Z" fill="#808080"/>
<path d="M6.98484 7.26222H5.26077L5.53007 6.42902H8.06202L6.98484 7.26222ZM5.31491 7.16413H6.93105L7.73929 6.47788H5.47663L5.31491 7.16413Z" fill="black"/>
<path d="M28.6418 7.31145L29.019 6.52746L28.4804 6.03738V4.37133L29.0732 3.7343H41.895L42.3798 4.37133L43.0801 3.88125L42.3798 3.14613H28.5884L27.888 3.83238V6.52781L28.6421 7.3118M17.4364 20.2004L16.0896 23.4348L31.2279 8.24273V6.42938L17.4364 20.2004Z" fill="#FEFEFE"/>
<path d="M16.1434 23.5325L16.0896 23.4837L17.4364 20.2001L31.2817 6.38015V8.29125L16.1434 23.5325ZM17.4902 20.2489L16.2513 23.3364L31.2279 8.29125V6.57597L17.4902 20.2489ZM28.6418 7.31109L28.588 7.26222L27.8877 6.57597V3.83168L28.588 3.09656H42.4332L43.1873 3.92976L42.4332 4.46871L41.9484 3.78246H29.0728L28.4801 4.37062V6.03667L29.0187 6.52675L28.6414 7.31074L28.6418 7.31109ZM27.9415 6.57597L28.6418 7.213L28.9649 6.52675L28.4263 6.03667V4.3214L29.0728 3.68437H41.9484L42.4332 4.3214L43.0798 3.88019L42.3794 3.19394H28.588L27.9415 3.88019V6.57597Z" fill="black"/>
<path d="M19.0526 4.22402L19.6991 3.78281V6.42902L18.945 7.213H17.4364V20.2489L16.0896 23.4833V6.42902H18.5678L19.0526 6.03703V4.22367V4.22402Z" fill="#808080"/>
<path d="M16.1434 23.4837H16.0896V6.42937H18.6216L19.0526 6.08624V4.27288L19.8067 3.78281V6.5271L18.9984 7.31109H17.544V20.2978L16.1434 23.4837ZM16.1434 6.47824V23.2875L17.4364 20.2489V7.16413H18.945L19.6991 6.42902V3.88054L19.1064 4.27253V6.08589L18.6216 6.47788L16.1434 6.47824Z" fill="black"/>
<path d="M28.9652 3.73395L28.4804 4.22403V6.03739L28.9114 6.4786H31.1741V8.24274L16.0896 23.4837V6.47824H18.5678L19.1064 5.98817V4.17481L18.6216 3.83168H5.47664L5.04562 4.27289V6.13512L5.47664 6.57633H7.79308V37.8914L8.2241 38.3326H10.8098L42.3795 5.74313V4.32176L41.8946 3.83168H28.9652V3.73395Z" fill="#CCCCCC"/>
<path d="M10.8098 38.2834H8.16996L7.73895 37.8422V6.52711H5.47629L4.99149 6.0859V4.1748L5.4225 3.73359H18.6216L19.1064 4.12558V5.98781L18.5678 6.52676H16.0896V23.3849L31.0662 8.19281V6.52676H28.8035L28.3725 6.08554V4.22332L28.9111 3.68437H41.8947L42.4332 4.22332V5.69355L10.8098 38.283V38.2834ZM8.2241 38.2345H10.8098L42.3257 5.64504V4.22367L41.8409 3.73359H28.9652L28.4804 4.22367V5.98781L28.9114 6.3798H31.2279V8.19316L16.0896 23.5814V6.42902H18.6216L19.1064 5.93894V4.12558L18.6754 3.78246H5.47629L5.04527 4.17445V5.98781L5.47629 6.3798H7.79274V37.7441L8.22375 38.2342L8.2241 38.2345Z" fill="black"/>
<path d="M42.4336 4.2729L43.1339 3.88091V6.38016L11.3488 38.9204H7.9548L8.27789 38.2834H10.8636L42.3795 5.69391L42.4332 4.27255L42.4336 4.2729Z" fill="#808080"/>
<path d="M11.3488 38.9697H7.901L8.27823 38.2345H10.864L42.3256 5.69426L42.3794 4.27289L43.1335 3.83168V6.47789L11.3488 38.9697ZM8.00858 38.8716H11.295L43.0801 6.38016V3.92977L42.4336 4.27289L42.3798 5.69426L10.864 38.3326H8.27823L8.00858 38.8716Z" fill="black"/>
<path d="M31.1741 6.47824L30.4738 7.21336H28.6422L29.0732 6.47824H31.1741Z" fill="#808080"/>
<path d="M30.4738 7.26222H28.5342L29.019 6.42902H31.2817L30.4738 7.26222ZM28.6959 7.21335H30.4738L31.1203 6.5271H29.1269L28.6959 7.21335Z" fill="black"/>
<path d="M23.6317 24.8066C23.6317 24.8066 23.5779 24.8066 23.5779 24.8555L22.9852 25.3944L22.9314 25.4433L22.3386 27.1585C22.3386 27.2074 22.3386 27.2566 22.3924 27.3055L22.8772 27.7956C22.931 27.8444 22.931 27.8444 22.9848 27.8444H24.8702C24.924 27.8444 24.924 27.8444 24.9778 27.7956L25.4626 27.3055L25.5164 27.2566L26.055 25.4433C26.055 25.3944 26.055 25.3452 26.0012 25.2963L25.5702 24.9043C25.5164 24.8555 25.5164 24.8555 25.4626 24.8555H23.631V24.8066H23.6317ZM20.1298 29.6582C20.076 29.6582 20.0222 29.707 20.0222 29.7562L19.8067 30.6875C19.8067 30.7856 19.8605 30.8345 19.9143 30.8837H21.0994L18.3519 38.7246C18.3519 38.8227 18.3519 38.8716 18.4595 38.9208H22.5C22.5538 38.9208 22.6076 38.8719 22.6617 38.8227L22.931 37.9895C22.931 37.8914 22.931 37.8425 22.8235 37.7933H21.8538L24.6013 29.8543C24.6013 29.7562 24.6013 29.7074 24.4937 29.6582H20.1298ZM32.8978 29.707C32.844 29.707 32.844 29.707 32.844 29.7559L32.0358 30.6872H30.689L29.8269 29.7559C29.8269 29.707 29.7731 29.707 29.7194 29.707H26.4871C26.4333 29.707 26.3795 29.7559 26.3795 29.8051L26.1102 30.6872C26.1102 30.7853 26.1102 30.8341 26.2178 30.8834H27.1336L24.4937 38.6754C24.4937 38.7735 24.4937 38.8223 24.6013 38.8716H28.0491C28.1029 38.8716 28.1567 38.8227 28.1567 38.7735L28.426 38.0384C28.426 37.9403 28.426 37.8914 28.3184 37.8422H27.6718L29.3418 32.5494H32.3585L30.419 38.7243C30.419 38.8223 30.419 38.8712 30.5265 38.9204H33.8126C33.8664 38.9204 33.9202 38.8716 33.9202 38.8223L34.1895 38.1361C34.2433 38.0872 34.1895 37.9891 34.1357 37.9399H33.4892L35.2132 32.5491H38.1224L36.1828 38.7239C36.1828 38.822 36.1828 38.8709 36.2904 38.9201H39.8999C39.9537 38.9201 40.0075 38.8712 40.0075 38.822L40.2768 38.0869C40.2768 37.9888 40.2768 37.9399 40.1692 37.8907H39.4151L41.5702 30.8827V30.7357L40.9236 29.8536C40.8699 29.8048 40.8699 29.8048 40.8161 29.8048H38.2841C38.2303 29.8048 38.2303 29.8048 38.1765 29.8536L37.3683 30.7357H35.9677L35.1594 29.8044C35.1056 29.7555 35.1056 29.7555 35.0519 29.7555H32.8968V29.7067L32.8978 29.707Z" fill="#CCCCCC"/>
<path d="M22.4466 39.2635H18.4599C18.4061 39.2635 18.3523 39.2635 18.2981 39.2147C18.0288 39.1166 17.9209 38.8716 17.9751 38.6265L20.5608 31.2265H19.8067C19.5374 31.1776 19.3757 30.8834 19.4836 30.6383L19.6991 29.707C19.7529 29.5109 19.8608 29.4131 20.0763 29.3639H24.3861C24.4399 29.3639 24.4937 29.3639 24.5479 29.4128C24.8172 29.5109 24.9251 29.7559 24.871 30.0009L22.2852 37.4991H22.8779C23.1472 37.5971 23.2552 37.8422 23.201 38.0872L22.9317 38.9204C22.8242 39.1166 22.6621 39.2635 22.4466 39.2635ZM21.046 30.5402H21.5308L18.7295 38.5773H22.339L22.5007 38.1361H21.3694L24.1706 30.0009H20.3994L20.2377 30.5399L21.046 30.5402ZM39.8475 39.1655H36.1301C35.8608 39.0674 35.7529 38.8223 35.807 38.5773L37.6386 32.8437H35.4298L33.9212 37.5483H34.0288C34.0826 37.5483 34.1364 37.5483 34.1905 37.5971C34.4598 37.6952 34.5677 37.9891 34.4598 38.2342L34.1905 38.9204C34.1367 39.1166 33.9212 39.2143 33.7595 39.2143H30.3655C30.0962 39.1162 29.9883 38.8712 30.0424 38.6262L31.8741 32.8433H29.5035L28.0491 37.4498H28.1567C28.2104 37.4498 28.2642 37.4498 28.3184 37.4987C28.5877 37.5968 28.6956 37.8418 28.6415 38.0869L28.3722 38.8709C28.3184 39.067 28.1029 39.1648 27.9411 39.214H24.5472C24.4934 39.214 24.4396 39.214 24.3854 39.1651C24.1161 39.067 24.0082 38.822 24.0624 38.5769L26.5405 31.2258H26.1633C26.1095 31.2258 26.0557 31.2258 26.0016 31.1769C25.7323 31.0788 25.6244 30.8338 25.6785 30.5887L25.9478 29.7067C26.0016 29.5105 26.2171 29.3635 26.3788 29.3635H29.5573C29.6649 29.3635 29.8266 29.4124 29.8804 29.5105L30.6886 30.3437H31.7124L32.4665 29.5105C32.5202 29.4124 32.6282 29.3635 32.7358 29.3635H34.8905C34.9981 29.3635 35.1598 29.4124 35.2136 29.5105L35.9677 30.2945H37.099L37.7993 29.5105C37.9071 29.4125 38.0148 29.3635 38.1224 29.3635H40.6544C40.8161 29.3635 40.9236 29.4124 41.0316 29.5597L41.6781 30.4418C41.7857 30.5399 41.7857 30.7357 41.7319 30.883L39.7385 37.4498H40.0078C40.0616 37.4498 40.1154 37.4498 40.1695 37.4987C40.4388 37.5968 40.5468 37.8418 40.4388 38.0869L40.1695 38.8709C40.2233 39.0178 40.062 39.1648 39.8465 39.1648L39.8475 39.1655ZM27.0795 30.5402H27.5643L24.8706 38.4792H27.8336L27.9411 38.0872H27.187L29.0725 32.1085H32.7895L30.7962 38.4796H33.6516L33.7592 38.1857H33.0051L34.9446 32.1578H38.5541L36.5608 38.5288H39.7392L39.901 38.1368H39.0389L41.3016 30.7856L40.763 30.0505H38.3924L37.5304 30.9818H35.8063L34.9443 30.0016H33.0588L32.1968 30.9818H30.5807L29.6649 30.0016H26.7019L26.5402 30.4917H27.0788L27.0795 30.5402ZM24.763 28.1391H22.8776C22.77 28.1391 22.6083 28.0902 22.5545 27.9921L22.0697 27.502C21.9621 27.3551 21.908 27.1589 21.9621 27.0119L22.5549 25.2967C22.5549 25.1986 22.6086 25.1497 22.6624 25.1005L23.2552 24.5616C23.309 24.5127 23.3628 24.4635 23.4707 24.4635H25.3023C25.4101 24.4635 25.5178 24.5125 25.6254 24.6104L26.0564 25.0024C26.164 25.1005 26.2181 25.2963 26.164 25.4925L25.6254 27.3059C25.6254 27.4039 25.5716 27.4528 25.5178 27.502L25.033 27.9921C25.033 28.0902 24.8713 28.1391 24.7637 28.1391H24.763ZM22.6621 27.1589L22.9852 27.502H24.7092L25.0865 27.11L25.5713 25.444L25.302 25.1989H23.6858L23.1472 25.6402L22.6624 27.1593L22.6621 27.1589Z" fill="black"/>
<path d="M23.6317 24.9539L23.039 25.4928L22.4462 27.2081L22.931 27.6982H24.8165L25.3013 27.2081L25.8399 25.3948L25.4088 25.0028H23.631L23.6317 24.9539ZM20.1839 29.8055L19.9684 30.7368H21.2615L18.4602 38.7738H22.4469L22.7162 37.9406H21.6387L24.4399 29.8055H20.1839ZM32.8978 29.8055L32.0358 30.7856H30.5814L29.6656 29.8055H26.4871L26.2178 30.6875H27.2415L24.5479 38.6265H27.9418L28.2111 37.8914H27.4029L29.1808 32.3536H32.5209L30.5276 38.6754H33.7599L34.0292 37.9891H33.2209L34.9988 32.3044H38.1772L36.1839 38.6754H39.7396L40.0089 37.9403H39.0931L41.3019 30.7853L40.6554 29.9032H38.1234L37.2614 30.8345H35.6991L34.837 29.8543H32.8975L32.8978 29.8055Z" fill="#CCCCCC"/>
<path d="M22.5004 38.8227H18.4061L21.2073 30.7856H19.9143L20.1836 29.7566H24.4934L21.638 37.8918H22.7155L22.5 38.8231L22.5004 38.8227ZM18.5136 38.7246H22.4462L22.6617 37.9406H21.5842L24.3317 29.8547H20.2374L20.0218 30.6879H21.3149L18.5136 38.7246ZM39.9013 38.7246H36.238L38.2314 32.3536H35.1067L33.3288 37.9403H34.1371L33.814 38.7243H30.4738L32.4672 32.4025H29.2349L27.5108 37.8911H28.3191L28.0498 38.7243H24.602L27.2957 30.7853H26.2719L26.595 29.854H29.8273L30.7431 30.8341H32.1437L33.0058 29.854H35.1067L35.9687 30.8341H37.4773L38.3393 29.9029H40.9251L41.6254 30.8341L39.4165 37.9403H40.3323L39.9013 38.7246ZM36.3456 38.6265H39.8475L40.1168 37.9403H39.201L41.4099 30.7364L40.7633 29.8543H38.2314L37.3693 30.7856H35.807L34.945 29.8055H32.9516L32.0896 30.7856H30.581L29.6652 29.8055H26.5405L26.2712 30.5895H27.295L24.6013 38.5284H27.8877L28.1032 37.8422H27.295L29.0728 32.2063H32.5206L30.5272 38.5281H33.7057L33.975 37.8911H33.2209L35.0526 32.1574H38.339L36.3456 38.6265ZM24.763 27.6982H22.8234L22.3386 27.2081L22.9852 25.444L23.6317 24.905H25.4095L25.8406 25.3463L25.302 27.1596L24.7634 27.6986L24.763 27.6982ZM22.8776 27.6493H24.7092L25.194 27.1593L25.7326 25.3951L25.3554 25.0031H23.6313L23.0386 25.4932L22.4459 27.1593L22.8769 27.6493H22.8776Z" fill="black"/>
</svg>
